<?xml version="1.0" encoding="utf-8"?>
<!-- Generator: Adobe Illustrator 16.0.3, SVG Export Plug-In . SVG Version: 6.00 Build 0)  -->
<!DOCTYPE svg PUBLIC "-//W3C//DTD SVG 1.1//EN" "http://www.w3.org/Graphics/SVG/1.1/DTD/svg11.dtd">
<svg version="1.1" id="图层_1" xmlns="http://www.w3.org/2000/svg" xmlns:xlink="http://www.w3.org/1999/xlink" x="0px" y="0px"
	 width="320px" height="338px" viewBox="0 0 320 338" enable-background="new 0 0 320 338" xml:space="preserve">
<g display="none">
	<rect x="10" y="10" display="inline" fill="#E23333" width="20" height="20"/>
	<rect x="40" y="10" display="inline" fill="#E23333" width="20" height="20"/>
	<rect x="10" y="40" display="inline" fill="#E23333" width="20" height="20"/>
	<rect x="40" y="40" display="inline" fill="#E23333" width="20" height="20"/>
	<rect x="10" y="70" display="inline" fill="#E23333" width="20" height="20"/>
	<rect x="40" y="70" display="inline" fill="#E23333" width="20" height="20"/>
	<rect x="70" y="10" display="inline" fill="#E23333" width="20" height="20"/>
	<rect x="100" y="10" display="inline" fill="#E23333" width="20" height="20"/>
	<rect x="70" y="40" display="inline" fill="#E23333" width="20" height="20"/>
	<rect x="100" y="40" display="inline" fill="#E23333" width="20" height="20"/>
	<rect x="70" y="70" display="inline" fill="#E23333" width="20" height="20"/>
	<rect x="100" y="70" display="inline" fill="#E23333" width="20" height="20"/>
	<rect x="10" y="100" display="inline" fill="#E23333" width="20" height="20"/>
	<rect x="40" y="100" display="inline" fill="#E23333" width="20" height="20"/>
	<rect x="70" y="100" display="inline" fill="#E23333" width="20" height="20"/>
	<rect x="100" y="100" display="inline" fill="#E23333" width="20" height="20"/>
	<rect x="10" y="130" display="inline" fill="#E23333" width="20" height="20"/>
	<rect x="40" y="130" display="inline" fill="#E23333" width="20" height="20"/>
	<rect x="70" y="130" display="inline" fill="#E23333" width="20" height="20"/>
	<rect x="100" y="130" display="inline" fill="#E23333" width="20" height="20"/>
</g>
<g>
	<path fill="none" stroke="#999999" stroke-width="1.5" stroke-linecap="round" stroke-miterlimit="10" d="M26,26.3
		c0,1.492-0.948,2.7-2.118,2.7h-7.764C14.948,29,14,27.792,14,26.3V13.7c0-1.492,0.948-2.7,2.118-2.7h7.764
		C25.052,11,26,12.208,26,13.7V26.3z"/>
	
		<line fill="none" stroke="#999999" stroke-width="1.5" stroke-linecap="round" stroke-miterlimit="10" x1="14.353" y1="25.4" x2="25.647" y2="25.4"/>
	
		<line fill="none" stroke="#999999" stroke-width="1.5" stroke-linecap="round" stroke-miterlimit="10" x1="18.941" y1="27.2" x2="21.059" y2="27.2"/>
</g>
<g>
	<path fill="none" stroke="#999999" stroke-width="1.5" stroke-linecap="round" stroke-miterlimit="10" d="M56,26.3
		c0,1.492-0.948,2.7-2.118,2.7h-7.764C44.948,29,44,27.792,44,26.3V13.7c0-1.492,0.948-2.7,2.118-2.7h7.764
		C55.052,11,56,12.208,56,13.7V26.3z"/>
	
		<line fill="none" stroke="#999999" stroke-width="1.5" stroke-linecap="round" stroke-miterlimit="10" x1="44.353" y1="25.4" x2="55.647" y2="25.4"/>
	
		<line fill="none" stroke="#999999" stroke-width="1.5" stroke-linecap="round" stroke-miterlimit="10" x1="48.941" y1="27.2" x2="51.059" y2="27.2"/>
</g>
<g>
	<path fill="none" stroke="#999999" stroke-width="1.5" stroke-linecap="round" stroke-miterlimit="10" d="M86,26.3
		c0,1.492-0.948,2.7-2.118,2.7h-7.764C74.948,29,74,27.792,74,26.3V13.7c0-1.492,0.948-2.7,2.118-2.7h7.764
		C85.052,11,86,12.208,86,13.7V26.3z"/>
	
		<line fill="none" stroke="#999999" stroke-width="1.5" stroke-linecap="round" stroke-miterlimit="10" x1="74.353" y1="25.4" x2="85.647" y2="25.4"/>
	
		<line fill="none" stroke="#999999" stroke-width="1.5" stroke-linecap="round" stroke-miterlimit="10" x1="78.941" y1="27.2" x2="81.059" y2="27.2"/>
</g>
<g>
	<path fill="none" stroke="#999999" stroke-width="1.5" stroke-linecap="round" stroke-miterlimit="10" d="M116,26.3
		c0,1.492-0.948,2.7-2.118,2.7h-7.764c-1.17,0-2.118-1.208-2.118-2.7V13.7c0-1.492,0.948-2.7,2.118-2.7h7.764
		c1.17,0,2.118,1.208,2.118,2.7V26.3z"/>
	
		<line fill="none" stroke="#999999" stroke-width="1.5" stroke-linecap="round" stroke-miterlimit="10" x1="104.353" y1="25.4" x2="115.647" y2="25.4"/>
	
		<line fill="none" stroke="#999999" stroke-width="1.5" stroke-linecap="round" stroke-miterlimit="10" x1="108.941" y1="27.2" x2="111.059" y2="27.2"/>
</g>
<g>
	<path fill="none" stroke="#999999" stroke-width="1.5" stroke-linecap="round" stroke-miterlimit="10" d="M26.429,57H13.571
		C12.151,57,11,55.86,11,54.455v-8.909C11,44.14,12.151,43,13.571,43h12.857C27.849,43,29,44.14,29,45.545v8.909
		C29,55.86,27.849,57,26.429,57z"/>
	<path fill="none" stroke="#999999" stroke-width="1.5" stroke-linecap="round" stroke-miterlimit="10" d="M11.857,43.849
		l7.311,6.091c0.48,0.402,1.185,0.402,1.665,0l7.311-6.091"/>
</g>
<g>
	<path fill="none" stroke="#999999" stroke-width="1.5" stroke-linecap="round" stroke-miterlimit="10" d="M56.429,57H43.571
		C42.151,57,41,55.86,41,54.455v-8.909C41,44.14,42.151,43,43.571,43h12.857C57.849,43,59,44.14,59,45.545v8.909
		C59,55.86,57.849,57,56.429,57z"/>
	<path fill="none" stroke="#999999" stroke-width="1.5" stroke-linecap="round" stroke-miterlimit="10" d="M41.857,43.849
		l7.311,6.091c0.48,0.402,1.185,0.402,1.665,0l7.311-6.091"/>
</g>
<g>
	<path fill="none" stroke="#999999" stroke-width="1.5" stroke-linecap="round" stroke-miterlimit="10" d="M86.429,57H73.571
		C72.151,57,71,55.86,71,54.455v-8.909C71,44.14,72.151,43,73.571,43h12.857C87.849,43,89,44.14,89,45.545v8.909
		C89,55.86,87.849,57,86.429,57z"/>
	<path fill="none" stroke="#999999" stroke-width="1.5" stroke-linecap="round" stroke-miterlimit="10" d="M71.857,43.849
		l7.311,6.091c0.48,0.402,1.185,0.402,1.665,0l7.311-6.091"/>
</g>
<g>
	<path fill="none" stroke="#999999" stroke-width="1.5" stroke-linecap="round" stroke-miterlimit="10" d="M116.429,57h-12.857
		c-1.42,0-2.571-1.14-2.571-2.545v-8.909c0-1.406,1.151-2.545,2.571-2.545h12.857c1.42,0,2.571,1.14,2.571,2.545v8.909
		C119,55.86,117.849,57,116.429,57z"/>
	<path fill="none" stroke="#999999" stroke-width="1.5" stroke-linecap="round" stroke-miterlimit="10" d="M101.857,43.849
		l7.311,6.091c0.48,0.402,1.185,0.402,1.665,0l7.311-6.091"/>
</g>
<g>
	<path fill="none" stroke="#999999" stroke-width="1.5" stroke-linecap="round" stroke-miterlimit="10" d="M28,86.3
		c0,1.492-1.264,2.7-2.824,2.7H14.824C13.264,89,12,87.792,12,86.3v-5.85c0-1.492,1.264-2.7,2.824-2.7h10.353
		c1.56,0,2.824,1.208,2.824,2.7L28,86.3L28,86.3z"/>
	<path fill="none" stroke="#999999" stroke-width="1.5" stroke-linecap="round" stroke-miterlimit="10" d="M14.824,77.75V75.5
		c0-2.609,2.33-4.5,5.059-4.5h-0.059c2.729,0,4.882,1.891,4.882,4.5v0.9"/>
	
		<ellipse fill="none" stroke="#999999" stroke-width="1.5" stroke-linecap="round" stroke-miterlimit="10" cx="20" cy="82.7" rx="2.353" ry="2.25"/>
	
		<line fill="none" stroke="#999999" stroke-width="1.5" stroke-linecap="round" stroke-miterlimit="10" x1="20" y1="85.4" x2="20" y2="86.75"/>
</g>
<g>
	<path fill="none" stroke="#999999" stroke-width="1.5" stroke-linecap="round" stroke-miterlimit="10" d="M58,86.3
		c0,1.492-1.264,2.7-2.824,2.7H44.824C43.264,89,42,87.792,42,86.3v-5.85c0-1.492,1.264-2.7,2.824-2.7h10.353
		c1.56,0,2.824,1.208,2.824,2.7L58,86.3L58,86.3z"/>
	<path fill="none" stroke="#999999" stroke-width="1.5" stroke-linecap="round" stroke-miterlimit="10" d="M44.824,77.75V75.5
		c0-2.609,2.33-4.5,5.059-4.5h-0.059c2.729,0,4.882,1.891,4.882,4.5v0.9"/>
	
		<ellipse fill="none" stroke="#999999" stroke-width="1.5" stroke-linecap="round" stroke-miterlimit="10" cx="50" cy="82.7" rx="2.353" ry="2.25"/>
	
		<line fill="none" stroke="#999999" stroke-width="1.5" stroke-linecap="round" stroke-miterlimit="10" x1="50" y1="85.4" x2="50" y2="86.75"/>
</g>
<g>
	<path fill="none" stroke="#999999" stroke-width="1.5" stroke-linecap="round" stroke-miterlimit="10" d="M88,86.3
		c0,1.492-1.264,2.7-2.824,2.7H74.824C73.264,89,72,87.792,72,86.3v-5.85c0-1.492,1.264-2.7,2.824-2.7h10.353
		c1.56,0,2.824,1.208,2.824,2.7L88,86.3L88,86.3z"/>
	<path fill="none" stroke="#999999" stroke-width="1.5" stroke-linecap="round" stroke-miterlimit="10" d="M74.824,77.75V75.5
		c0-2.609,2.33-4.5,5.059-4.5h-0.059c2.729,0,4.882,1.891,4.882,4.5v0.9"/>
	
		<ellipse fill="none" stroke="#999999" stroke-width="1.5" stroke-linecap="round" stroke-miterlimit="10" cx="80" cy="82.7" rx="2.353" ry="2.25"/>
	
		<line fill="none" stroke="#999999" stroke-width="1.5" stroke-linecap="round" stroke-miterlimit="10" x1="80" y1="85.4" x2="80" y2="86.75"/>
</g>
<g>
	<path fill="none" stroke="#999999" stroke-width="1.5" stroke-linecap="round" stroke-miterlimit="10" d="M118,86.3
		c0,1.492-1.264,2.7-2.824,2.7h-10.353c-1.56,0-2.824-1.208-2.824-2.7v-5.85c0-1.492,1.264-2.7,2.824-2.7h10.353
		c1.56,0,2.824,1.208,2.824,2.7V86.3z"/>
	<path fill="none" stroke="#999999" stroke-width="1.5" stroke-linecap="round" stroke-miterlimit="10" d="M104.824,77.75V75.5
		c0-2.609,2.33-4.5,5.059-4.5h-0.059c2.729,0,4.882,1.891,4.882,4.5v0.9"/>
	
		<ellipse fill="none" stroke="#999999" stroke-width="1.5" stroke-linecap="round" stroke-miterlimit="10" cx="110" cy="82.7" rx="2.353" ry="2.25"/>
	
		<line fill="none" stroke="#999999" stroke-width="1.5" stroke-linecap="round" stroke-miterlimit="10" x1="110" y1="85.4" x2="110" y2="86.75"/>
</g>
<g>
	<path fill="none" stroke="#999999" stroke-width="1.5" stroke-linecap="round" stroke-miterlimit="10" d="M12.655,103.297
		l6.908-2.229c0.284-0.091,0.589-0.091,0.873,0l6.908,2.229c0.391,0.125,0.655,0.488,0.655,0.898v4.891
		c0,2.688-1.283,5.217-3.456,6.81l-3.983,2.921c-0.334,0.245-0.789,0.245-1.123,0l-3.984-2.921c-2.172-1.593-3.455-4.121-3.455-6.81
		v-4.891C12,103.786,12.265,103.423,12.655,103.297z"/>
	
		<line fill="none" stroke="#999999" stroke-width="1.5" stroke-linecap="round" stroke-miterlimit="10" x1="15.765" y1="108.123" x2="24.235" y2="108.123"/>
	
		<line fill="none" stroke="#999999" stroke-width="1.5" stroke-linecap="round" stroke-miterlimit="10" x1="20" y1="104.369" x2="20" y2="113.754"/>
</g>
<g>
	<path fill="none" stroke="#999999" stroke-width="1.5" stroke-linecap="round" stroke-miterlimit="10" d="M42.655,103.297
		l6.908-2.229c0.284-0.091,0.589-0.091,0.873,0l6.908,2.229c0.391,0.125,0.655,0.488,0.655,0.898v4.891
		c0,2.688-1.283,5.217-3.456,6.81l-3.983,2.921c-0.334,0.245-0.789,0.245-1.123,0l-3.984-2.921c-2.172-1.593-3.455-4.121-3.455-6.81
		v-4.891C42,103.786,42.265,103.423,42.655,103.297z"/>
	
		<line fill="none" stroke="#999999" stroke-width="1.5" stroke-linecap="round" stroke-miterlimit="10" x1="45.765" y1="108.123" x2="54.235" y2="108.123"/>
	
		<line fill="none" stroke="#999999" stroke-width="1.5" stroke-linecap="round" stroke-miterlimit="10" x1="50" y1="104.369" x2="50" y2="113.754"/>
</g>
<g>
	<path fill="none" stroke="#999999" stroke-width="1.5" stroke-linecap="round" stroke-miterlimit="10" d="M72.655,103.297
		l6.908-2.229c0.284-0.091,0.589-0.091,0.873,0l6.908,2.229c0.391,0.125,0.655,0.488,0.655,0.898v4.891
		c0,2.688-1.283,5.217-3.456,6.81l-3.983,2.921c-0.334,0.245-0.789,0.245-1.123,0l-3.984-2.921c-2.172-1.593-3.455-4.121-3.455-6.81
		v-4.891C72,103.786,72.265,103.423,72.655,103.297z"/>
	
		<line fill="none" stroke="#999999" stroke-width="1.5" stroke-linecap="round" stroke-miterlimit="10" x1="75.765" y1="108.123" x2="84.235" y2="108.123"/>
	
		<line fill="none" stroke="#999999" stroke-width="1.5" stroke-linecap="round" stroke-miterlimit="10" x1="80" y1="104.369" x2="80" y2="113.754"/>
</g>
<g>
	<path fill="none" stroke="#999999" stroke-width="1.5" stroke-linecap="round" stroke-miterlimit="10" d="M102.655,103.297
		l6.908-2.229c0.284-0.091,0.589-0.091,0.873,0l6.908,2.229c0.391,0.125,0.655,0.488,0.655,0.898v4.891
		c0,2.688-1.283,5.217-3.456,6.81l-3.983,2.921c-0.334,0.245-0.789,0.245-1.123,0l-3.984-2.921c-2.172-1.593-3.455-4.121-3.455-6.81
		v-4.891C102,103.786,102.265,103.423,102.655,103.297z"/>
	
		<line fill="none" stroke="#999999" stroke-width="1.5" stroke-linecap="round" stroke-miterlimit="10" x1="105.765" y1="108.123" x2="114.235" y2="108.123"/>
	
		<line fill="none" stroke="#999999" stroke-width="1.5" stroke-linecap="round" stroke-miterlimit="10" x1="110" y1="104.369" x2="110" y2="113.754"/>
</g>
<g>
	<path fill="none" stroke="#999999" stroke-width="1.5" stroke-linecap="round" stroke-miterlimit="10" d="M27.691,149
		c0.919,0,1.538-0.916,1.229-1.78c-0.951-2.658-3.092-4.746-5.781-5.627"/>
	<path fill="none" stroke="#999999" stroke-width="1.5" stroke-linecap="round" stroke-miterlimit="10" d="M16.862,141.593
		c-2.689,0.882-4.83,2.97-5.781,5.627c-0.31,0.865,0.31,1.78,1.228,1.78"/>
	
		<circle fill="none" stroke="#999999" stroke-width="1.5" stroke-linecap="round" stroke-miterlimit="10" cx="20" cy="136.684" r="5.684"/>
</g>
<g>
	<path fill="none" stroke="#999999" stroke-width="1.5" stroke-linecap="round" stroke-miterlimit="10" d="M57.691,149
		c0.919,0,1.538-0.916,1.229-1.78c-0.951-2.658-3.092-4.746-5.781-5.627"/>
	<path fill="none" stroke="#999999" stroke-width="1.5" stroke-linecap="round" stroke-miterlimit="10" d="M46.862,141.593
		c-2.689,0.882-4.83,2.97-5.781,5.627c-0.31,0.865,0.31,1.78,1.228,1.78"/>
	
		<circle fill="none" stroke="#999999" stroke-width="1.5" stroke-linecap="round" stroke-miterlimit="10" cx="50" cy="136.684" r="5.684"/>
</g>
<g>
	<path fill="none" stroke="#999999" stroke-width="1.5" stroke-linecap="round" stroke-miterlimit="10" d="M87.691,149
		c0.919,0,1.538-0.916,1.229-1.78c-0.951-2.658-3.092-4.746-5.781-5.627"/>
	<path fill="none" stroke="#999999" stroke-width="1.5" stroke-linecap="round" stroke-miterlimit="10" d="M76.862,141.593
		c-2.689,0.882-4.83,2.97-5.781,5.627c-0.31,0.865,0.31,1.78,1.228,1.78"/>
	
		<circle fill="none" stroke="#999999" stroke-width="1.5" stroke-linecap="round" stroke-miterlimit="10" cx="80" cy="136.684" r="5.684"/>
</g>
<g>
	<path fill="none" stroke="#999999" stroke-width="1.5" stroke-linecap="round" stroke-miterlimit="10" d="M117.691,149
		c0.919,0,1.538-0.916,1.229-1.78c-0.951-2.658-3.092-4.746-5.781-5.627"/>
	<path fill="none" stroke="#999999" stroke-width="1.5" stroke-linecap="round" stroke-miterlimit="10" d="M106.862,141.593
		c-2.689,0.882-4.83,2.97-5.781,5.627c-0.31,0.865,0.31,1.78,1.228,1.78"/>
	
		<circle fill="none" stroke="#999999" stroke-width="1.5" stroke-linecap="round" stroke-miterlimit="10" cx="110" cy="136.684" r="5.684"/>
</g>
<rect x="73.5" y="163.5" fill="#FFFFFF" stroke="#CCCCCC" stroke-miterlimit="10" width="13" height="13"/>
<g>
	<rect x="103.5" y="163.5" fill="#FFFFFF" stroke="#CCCCCC" stroke-miterlimit="10" width="13" height="13"/>
	<rect x="106" y="166" fill="#3B97F6" width="8" height="8"/>
</g>
<g>
	<circle fill="#FF2626" cx="20" cy="200" r="9"/>
	<g>
		<line fill="none" stroke="#FFFFFF" stroke-linecap="round" stroke-miterlimit="10" x1="16" y1="196" x2="24" y2="204"/>
		<line fill="none" stroke="#FFFFFF" stroke-linecap="round" stroke-miterlimit="10" x1="24" y1="196" x2="16" y2="204"/>
	</g>
</g>
<g>
	<circle fill="#99D336" cx="50" cy="200" r="9"/>
	<g>
		<polyline fill="none" stroke="#FFFFFF" stroke-linecap="round" stroke-miterlimit="10" points="44.5,199.125 48.731,203.5 
			55.5,196.5 		"/>
	</g>
</g>
<g>
	<circle fill="#FF4D4D" cx="120" cy="238" r="18"/>
	<g>
		<path fill="#FF4D4D" d="M109.764,241.754c0,2.875,3.639,5.207,8.128,5.207c4.489,0,8.127-2.332,8.127-5.207
			s-3.639-5.207-8.127-5.207C113.403,236.547,109.764,238.879,109.764,241.754"/>
		<path fill="#FFFFFF" d="M126.028,237.629c-0.338-0.104-0.57-0.175-0.393-0.632c0.384-0.992,0.423-1.849,0.007-2.458
			c-0.779-1.145-2.91-1.083-5.354-0.031c0-0.001-0.767,0.346-0.571-0.281c0.376-1.242,0.319-2.283-0.266-2.885
			c-1.326-1.363-4.852,0.051-7.874,3.16c-2.264,2.33-3.579,4.798-3.579,6.932c0,4.084,5.089,6.565,10.069,6.565
			c6.527,0,10.869-3.901,10.869-6.999C128.938,239.129,127.405,238.068,126.028,237.629z M118.082,246.537
			c-3.973,0.402-7.403-1.445-7.661-4.128c-0.258-2.683,2.754-5.185,6.727-5.589c3.974-0.404,7.403,1.443,7.661,4.125
			C125.066,243.629,122.055,246.132,118.082,246.537z"/>
		<path fill="#FFFFFF" d="M130.363,230.157c-1.576-1.798-3.901-2.483-6.047-2.015l0,0c-0.497,0.109-0.813,0.612-0.708,1.123
			c0.106,0.51,0.595,0.836,1.091,0.728c1.526-0.333,3.179,0.153,4.299,1.432c1.119,1.277,1.423,3.019,0.944,4.546l0,0
			c-0.156,0.496,0.108,1.028,0.593,1.189c0.482,0.16,1-0.111,1.157-0.607c0-0.001,0-0.003,0-0.003
			C132.365,234.402,131.94,231.953,130.363,230.157"/>
		<path fill="#FFFFFF" d="M127.942,232.404c-0.767-0.875-1.899-1.209-2.945-0.979c-0.428,0.095-0.699,0.527-0.608,0.968
			c0.091,0.438,0.512,0.719,0.938,0.625l0,0c0.511-0.111,1.065,0.051,1.44,0.478c0.375,0.429,0.477,1.012,0.315,1.522h0.001
			c-0.134,0.428,0.094,0.887,0.509,1.025c0.416,0.137,0.862-0.096,0.996-0.523C128.917,234.473,128.711,233.279,127.942,232.404"/>
		<path fill="#FFFFFF" d="M118.479,238.884c-1.891-0.506-4.028,0.464-4.849,2.177c-0.836,1.748-0.027,3.688,1.882,4.323
			c1.979,0.656,4.311-0.35,5.122-2.235C121.434,241.305,120.436,239.404,118.479,238.884z M117.035,243.348
			c-0.384,0.631-1.208,0.907-1.827,0.616c-0.611-0.286-0.791-1.019-0.407-1.633c0.379-0.612,1.175-0.886,1.791-0.62
			C117.213,241.982,117.413,242.711,117.035,243.348z M118.301,241.676c-0.139,0.245-0.446,0.362-0.687,0.262
			c-0.237-0.102-0.311-0.375-0.177-0.614c0.139-0.239,0.434-0.355,0.67-0.259C118.348,241.154,118.434,241.432,118.301,241.676z"/>
	</g>
</g>
<g>
	<circle fill="#3DB135" cx="74" cy="238" r="18"/>
	<path fill="#FFFFFF" d="M69.343,228.066c0.364-0.043,0.734-0.064,1.111-0.066h0.086c0.376,0.002,0.749,0.023,1.114,0.066
		c0.148,0.018,0.295,0.039,0.441,0.063c0.115,0.02,0.229,0.039,0.343,0.063c0.097,0.019,0.193,0.039,0.289,0.062
		c0.085,0.021,0.17,0.04,0.254,0.062c0.076,0.021,0.152,0.041,0.227,0.063c0.07,0.02,0.14,0.041,0.209,0.063
		c0.065,0.02,0.129,0.041,0.193,0.062c0.061,0.021,0.121,0.041,0.181,0.062c0.057,0.021,0.114,0.041,0.17,0.063
		c0.054,0.02,0.107,0.041,0.161,0.063c0.051,0.021,0.102,0.041,0.152,0.062c0.049,0.021,0.097,0.041,0.146,0.062
		c0.047,0.021,0.093,0.041,0.139,0.063c0.045,0.021,0.09,0.041,0.134,0.063c0.043,0.02,0.085,0.041,0.128,0.062
		c0.041,0.021,0.082,0.041,0.123,0.062c0.04,0.021,0.08,0.041,0.119,0.063s0.077,0.041,0.116,0.063
		c0.037,0.02,0.074,0.041,0.11,0.062s0.072,0.042,0.107,0.062c0.035,0.021,0.07,0.041,0.104,0.063
		c0.034,0.02,0.068,0.041,0.102,0.062c0.033,0.021,0.065,0.041,0.098,0.063c0.032,0.021,0.064,0.041,0.096,0.062
		c0.031,0.021,0.062,0.041,0.092,0.063c0.03,0.021,0.061,0.041,0.09,0.062c0.03,0.021,0.06,0.041,0.089,0.062
		c0.029,0.021,0.057,0.041,0.085,0.063c0.028,0.021,0.057,0.041,0.084,0.063c0.027,0.021,0.055,0.041,0.082,0.062
		c0.027,0.021,0.053,0.041,0.08,0.062c0.027,0.021,0.052,0.041,0.078,0.063c0.025,0.021,0.05,0.041,0.076,0.063
		c0.025,0.021,0.05,0.041,0.075,0.062c0.024,0.021,0.048,0.042,0.072,0.062c0.024,0.021,0.047,0.041,0.071,0.063
		c0.023,0.021,0.046,0.041,0.068,0.063c0.023,0.021,0.046,0.041,0.068,0.062c0.022,0.021,0.044,0.042,0.066,0.062
		c0.021,0.021,0.043,0.041,0.064,0.063s0.042,0.042,0.063,0.063s0.041,0.041,0.062,0.062s0.041,0.041,0.061,0.062
		c0.02,0.021,0.04,0.041,0.06,0.063c0.02,0.021,0.039,0.041,0.058,0.063c0.019,0.021,0.038,0.041,0.057,0.062
		s0.037,0.041,0.055,0.062c0.019,0.021,0.037,0.041,0.055,0.063s0.036,0.041,0.053,0.063c0.017,0.021,0.035,0.041,0.052,0.062
		c0.017,0.021,0.034,0.042,0.05,0.062c0.017,0.021,0.034,0.041,0.05,0.063c0.017,0.02,0.032,0.041,0.048,0.063
		c0.016,0.021,0.033,0.04,0.048,0.062c0.016,0.021,0.031,0.041,0.046,0.062c0.015,0.021,0.031,0.041,0.046,0.063
		c0.015,0.021,0.03,0.041,0.044,0.062c0.014,0.021,0.029,0.041,0.044,0.062c0.015,0.021,0.029,0.041,0.042,0.063
		c0.014,0.021,0.028,0.042,0.042,0.063c0.014,0.02,0.027,0.041,0.041,0.062c0.014,0.021,0.027,0.041,0.04,0.062
		c0.013,0.021,0.026,0.041,0.04,0.063c0.013,0.021,0.025,0.041,0.038,0.063c0.013,0.021,0.025,0.041,0.038,0.062
		c0.012,0.021,0.024,0.041,0.036,0.062c0.012,0.021,0.024,0.043,0.036,0.063c0.012,0.02,0.023,0.041,0.035,0.063
		c0.011,0.021,0.022,0.041,0.034,0.062c0.012,0.021,0.022,0.041,0.034,0.062c0.011,0.021,0.021,0.041,0.032,0.063
		c0.011,0.021,0.021,0.042,0.032,0.063c0.011,0.021,0.021,0.041,0.031,0.062c0.01,0.021,0.02,0.041,0.03,0.062
		c0.01,0.021,0.02,0.041,0.029,0.063c0.01,0.021,0.019,0.041,0.028,0.063c0.009,0.021,0.019,0.041,0.028,0.062
		c0.009,0.021,0.018,0.041,0.027,0.062c0.009,0.021,0.018,0.043,0.026,0.063c0.009,0.021,0.018,0.041,0.026,0.063
		c0.008,0.02,0.016,0.041,0.024,0.062c0.008,0.021,0.017,0.041,0.024,0.062c0.008,0.021,0.015,0.041,0.023,0.063
		c0.007,0.021,0.015,0.042,0.022,0.063c0.007,0.02,0.015,0.041,0.022,0.062c0.007,0.02,0.014,0.041,0.021,0.062
		c0.007,0.021,0.014,0.041,0.021,0.063c0.007,0.021,0.013,0.041,0.02,0.062c0.007,0.021,0.013,0.042,0.019,0.062
		c0.006,0.021,0.013,0.041,0.019,0.063c0.006,0.021,0.012,0.042,0.018,0.063c0.006,0.02,0.012,0.041,0.017,0.062
		c0.006,0.021,0.011,0.042,0.016,0.062c0.006,0.021,0.011,0.041,0.016,0.063c0.005,0.021,0.011,0.041,0.016,0.063
		c0.005,0.021,0.009,0.041,0.014,0.062c0.004,0.021,0.009,0.041,0.014,0.062c0.003,0.015,0.006,0.027,0.009,0.041l0,0
		c-0.153-0.019-0.308-0.031-0.462-0.041c-0.118-0.008-0.236-0.01-0.355-0.01c-0.135,0-0.269,0.002-0.402,0.01
		c-0.222,0.012-0.44,0.031-0.656,0.062c-0.127,0.019-0.254,0.038-0.379,0.062c-0.099,0.02-0.196,0.041-0.293,0.063
		c-0.084,0.02-0.167,0.04-0.25,0.063c-0.073,0.02-0.145,0.039-0.217,0.062c-0.065,0.021-0.13,0.041-0.195,0.062
		c-0.06,0.021-0.12,0.041-0.179,0.063c-0.056,0.02-0.111,0.041-0.166,0.063c-0.052,0.02-0.104,0.041-0.155,0.062
		c-0.049,0.021-0.097,0.041-0.146,0.062c-0.046,0.021-0.092,0.041-0.138,0.063c-0.043,0.02-0.087,0.041-0.13,0.063
		c-0.042,0.02-0.083,0.041-0.123,0.062c-0.04,0.021-0.079,0.041-0.118,0.062c-0.038,0.021-0.076,0.041-0.113,0.063
		c-0.037,0.021-0.073,0.041-0.109,0.063c-0.035,0.02-0.07,0.041-0.104,0.062c-0.034,0.021-0.067,0.041-0.101,0.062
		c-0.033,0.021-0.065,0.041-0.098,0.063c-0.031,0.021-0.063,0.041-0.093,0.062c-0.03,0.021-0.061,0.041-0.091,0.063
		c-0.029,0.02-0.059,0.04-0.088,0.062c-0.028,0.021-0.057,0.041-0.084,0.063c-0.027,0.021-0.055,0.041-0.083,0.062
		c-0.028,0.021-0.054,0.041-0.081,0.062c-0.026,0.021-0.052,0.041-0.078,0.063c-0.025,0.021-0.051,0.041-0.076,0.063
		c-0.024,0.021-0.049,0.041-0.073,0.062s-0.048,0.041-0.072,0.062c-0.023,0.021-0.046,0.041-0.069,0.063
		c-0.023,0.02-0.045,0.041-0.068,0.063c-0.023,0.021-0.044,0.041-0.066,0.062c-0.021,0.021-0.043,0.041-0.064,0.062
		c-0.021,0.021-0.042,0.041-0.063,0.063s-0.041,0.041-0.061,0.063c-0.02,0.021-0.04,0.041-0.06,0.062s-0.039,0.041-0.058,0.062
		c-0.019,0.021-0.039,0.041-0.057,0.063c-0.019,0.021-0.037,0.042-0.056,0.063c-0.018,0.021-0.037,0.041-0.055,0.062
		s-0.035,0.042-0.053,0.062c-0.017,0.021-0.035,0.041-0.052,0.063s-0.034,0.042-0.051,0.063s-0.033,0.041-0.049,0.062
		s-0.032,0.041-0.048,0.062c-0.016,0.021-0.031,0.043-0.047,0.063c-0.016,0.02-0.031,0.041-0.046,0.063
		c-0.015,0.021-0.03,0.041-0.044,0.062c-0.015,0.021-0.03,0.041-0.044,0.062c-0.014,0.021-0.028,0.043-0.042,0.063
		s-0.028,0.041-0.042,0.062s-0.027,0.041-0.041,0.063c-0.014,0.021-0.027,0.041-0.04,0.062c-0.013,0.021-0.026,0.041-0.039,0.063
		c-0.013,0.021-0.025,0.042-0.038,0.062c-0.013,0.021-0.025,0.041-0.038,0.062c-0.012,0.021-0.024,0.041-0.036,0.063
		c-0.012,0.021-0.024,0.041-0.036,0.063c-0.012,0.021-0.023,0.041-0.034,0.062c-0.011,0.021-0.023,0.041-0.034,0.062
		c-0.011,0.021-0.022,0.041-0.033,0.063c-0.011,0.021-0.021,0.042-0.032,0.063c-0.011,0.02-0.021,0.041-0.032,0.062
		c-0.01,0.021-0.02,0.041-0.03,0.062c-0.01,0.021-0.02,0.041-0.03,0.063c-0.01,0.021-0.019,0.041-0.029,0.063
		c-0.009,0.021-0.019,0.041-0.028,0.062c-0.009,0.021-0.019,0.041-0.028,0.062c-0.009,0.021-0.018,0.041-0.026,0.063
		s-0.018,0.041-0.026,0.063c-0.008,0.021-0.017,0.041-0.025,0.062c-0.008,0.021-0.017,0.041-0.024,0.062
		c-0.008,0.021-0.017,0.041-0.024,0.063c-0.008,0.021-0.015,0.042-0.023,0.063c-0.007,0.021-0.015,0.041-0.022,0.062
		s-0.015,0.041-0.021,0.062c-0.007,0.021-0.014,0.041-0.021,0.063s-0.014,0.041-0.021,0.063c-0.006,0.021-0.013,0.041-0.019,0.062
		s-0.013,0.041-0.019,0.062c-0.006,0.021-0.013,0.043-0.019,0.063c-0.006,0.02-0.012,0.041-0.018,0.063
		c-0.005,0.021-0.012,0.04-0.017,0.062c-0.006,0.021-0.011,0.041-0.016,0.062c-0.005,0.021-0.011,0.041-0.016,0.063
		c-0.005,0.021-0.011,0.041-0.016,0.062c-0.005,0.021-0.009,0.041-0.014,0.062c-0.005,0.021-0.009,0.041-0.014,0.063
		s-0.009,0.041-0.014,0.063c-0.004,0.021-0.008,0.041-0.012,0.062s-0.008,0.041-0.012,0.062c-0.004,0.021-0.008,0.041-0.011,0.063
		c-0.004,0.021-0.007,0.042-0.011,0.063c-0.004,0.02-0.007,0.041-0.011,0.062c-0.003,0.021-0.006,0.041-0.009,0.062
		c-0.003,0.021-0.006,0.041-0.009,0.063c-0.003,0.021-0.006,0.042-0.009,0.063s-0.005,0.041-0.007,0.062s-0.005,0.041-0.007,0.062
		c-0.002,0.021-0.005,0.041-0.007,0.063s-0.003,0.041-0.005,0.063c-0.002,0.021-0.004,0.041-0.006,0.062
		c-0.001,0.021-0.003,0.041-0.005,0.062c-0.001,0.021-0.002,0.043-0.004,0.063s-0.003,0.042-0.004,0.063s-0.002,0.041-0.003,0.062
		s-0.001,0.041-0.002,0.062c0,0.021-0.001,0.041-0.002,0.063c0,0.021,0,0.041-0.001,0.063c-0.001,0.021,0,0.041-0.001,0.062
		c0,0.021,0,0.041,0,0.062v0.006c0,0.02,0,0.037,0,0.057c0,0.021,0,0.041,0.001,0.063c0,0.021,0,0.041,0.001,0.062
		c0,0.021,0.001,0.041,0.002,0.062c0.001,0.021,0.001,0.043,0.002,0.063s0.002,0.042,0.003,0.062
		c0.001,0.021,0.002,0.041,0.004,0.062c0.001,0.021,0.003,0.043,0.005,0.063c0.001,0.021,0.003,0.041,0.005,0.063
		c0.002,0.021,0.003,0.041,0.006,0.062c0.002,0.021,0.004,0.042,0.006,0.062c0.002,0.021,0.004,0.041,0.007,0.063
		c0.003,0.021,0.005,0.042,0.007,0.063c0.003,0.021,0.005,0.041,0.008,0.062s0.006,0.042,0.009,0.062
		c0.003,0.021,0.006,0.041,0.009,0.063s0.006,0.042,0.01,0.063c0.004,0.02,0.007,0.041,0.011,0.062
		c0.003,0.021,0.007,0.041,0.011,0.062c0.003,0.021,0.007,0.041,0.012,0.063c0.004,0.021,0.008,0.041,0.012,0.063
		c0.004,0.021,0.008,0.041,0.013,0.062c0.005,0.021,0.009,0.041,0.014,0.062c0.004,0.021,0.009,0.043,0.014,0.063
		s0.01,0.042,0.015,0.063c0.005,0.02,0.01,0.041,0.015,0.062c0.005,0.021,0.011,0.042,0.016,0.062
		c0.006,0.021,0.011,0.041,0.017,0.063s0.011,0.042,0.017,0.063l0.01,0.034c-0.143,0.011-0.286,0.021-0.43,0.026
		c-0.121,0.005-0.241,0.008-0.363,0.008c-0.118,0-0.232-0.003-0.346-0.008c-0.238-0.012-0.468-0.032-0.694-0.063
		c-0.138-0.018-0.274-0.039-0.411-0.062c-0.113-0.019-0.227-0.04-0.341-0.062c-0.103-0.021-0.207-0.041-0.311-0.063
		c-0.098-0.02-0.197-0.041-0.298-0.063c-0.097-0.021-0.195-0.041-0.295-0.062c-0.092-0.019-0.186-0.039-0.281-0.058l-0.112,0.058
		l-0.121,0.062l-0.121,0.063l-0.12,0.063l-0.121,0.062l-0.121,0.062l-0.121,0.063l-0.12,0.063l-0.121,0.062l-0.121,0.062
		l-0.121,0.063l-0.121,0.062l-0.12,0.063l-0.121,0.062l-0.121,0.063l-0.121,0.062l-0.12,0.062l-0.121,0.063l-0.121,0.063
		l-0.121,0.062l-0.12,0.062l-0.121,0.063l-0.121,0.063l-0.121,0.062l-0.085,0.044l0.014-0.044l0.02-0.062l0.02-0.063l0.02-0.063
		l0.021-0.062l0.02-0.062l0.02-0.063l0.02-0.063l0.02-0.062l0.02-0.062l0.02-0.063l0.02-0.062l0.021-0.063l0.02-0.062l0.02-0.063
		l0.02-0.062l0.02-0.062l0.02-0.063l0.02-0.063l0.021-0.062l0.02-0.062l0.02-0.063l0.02-0.063l0.02-0.062l0.02-0.062l0.02-0.063
		l0.02-0.063l0.021-0.062l0.02-0.062l0.02-0.063l0.02-0.063l0.02-0.062l0.02-0.062l0.02-0.063l0.021-0.063l0.02-0.062l0.02-0.062
		l0.02-0.063l0.02-0.063l0.02-0.062l0.02-0.062l0.021-0.063l0.012-0.035c-0.012-0.01-0.024-0.018-0.036-0.026
		c-0.029-0.021-0.057-0.041-0.085-0.063c-0.028-0.02-0.056-0.041-0.083-0.062c-0.027-0.021-0.055-0.041-0.082-0.063
		c-0.027-0.021-0.054-0.042-0.081-0.062c-0.026-0.021-0.052-0.041-0.079-0.062c-0.026-0.021-0.052-0.041-0.077-0.063
		s-0.051-0.042-0.076-0.063s-0.05-0.041-0.075-0.062c-0.024-0.021-0.049-0.042-0.073-0.062c-0.024-0.021-0.048-0.041-0.072-0.063
		c-0.023-0.021-0.047-0.042-0.07-0.063s-0.046-0.041-0.069-0.062c-0.022-0.021-0.045-0.041-0.068-0.062
		c-0.022-0.021-0.044-0.041-0.066-0.063s-0.043-0.041-0.065-0.063c-0.021-0.021-0.042-0.041-0.064-0.062
		c-0.021-0.021-0.042-0.041-0.063-0.062c-0.021-0.021-0.041-0.043-0.062-0.063s-0.041-0.042-0.061-0.063
		c-0.02-0.021-0.04-0.041-0.059-0.062c-0.02-0.021-0.039-0.041-0.058-0.062c-0.02-0.021-0.039-0.041-0.058-0.063
		s-0.037-0.042-0.056-0.063c-0.018-0.021-0.037-0.041-0.055-0.062s-0.036-0.041-0.054-0.062c-0.018-0.021-0.035-0.041-0.053-0.063
		s-0.034-0.041-0.051-0.063c-0.017-0.021-0.034-0.041-0.051-0.062s-0.033-0.041-0.05-0.062c-0.016-0.021-0.032-0.043-0.048-0.063
		c-0.016-0.021-0.032-0.042-0.047-0.063c-0.015-0.02-0.031-0.04-0.046-0.062c-0.015-0.021-0.031-0.042-0.046-0.062
		c-0.015-0.021-0.029-0.041-0.044-0.063c-0.015-0.021-0.029-0.042-0.044-0.062c-0.014-0.021-0.028-0.041-0.042-0.062
		s-0.028-0.041-0.042-0.063s-0.027-0.041-0.041-0.063c-0.013-0.021-0.027-0.041-0.04-0.062c-0.013-0.021-0.026-0.042-0.039-0.062
		c-0.013-0.021-0.025-0.041-0.038-0.063c-0.012-0.021-0.025-0.042-0.037-0.063c-0.012-0.02-0.024-0.041-0.037-0.062
		c-0.012-0.021-0.023-0.041-0.035-0.062c-0.012-0.021-0.023-0.041-0.035-0.063c-0.011-0.021-0.022-0.041-0.034-0.063
		c-0.011-0.021-0.022-0.041-0.033-0.062c-0.011-0.021-0.021-0.041-0.032-0.062c-0.01-0.021-0.021-0.043-0.031-0.063
		c-0.01-0.02-0.021-0.041-0.03-0.063c-0.01-0.021-0.02-0.041-0.03-0.062c-0.01-0.021-0.02-0.041-0.029-0.062
		c-0.009-0.021-0.019-0.041-0.028-0.063c-0.009-0.021-0.019-0.042-0.027-0.063c-0.009-0.021-0.018-0.041-0.026-0.062
		c-0.009-0.021-0.017-0.041-0.026-0.062c-0.008-0.021-0.017-0.041-0.025-0.063c-0.008-0.021-0.016-0.041-0.024-0.063
		c-0.008-0.021-0.016-0.041-0.023-0.062c-0.007-0.021-0.015-0.041-0.022-0.062c-0.007-0.021-0.015-0.043-0.022-0.063
		c-0.007-0.021-0.014-0.041-0.021-0.063c-0.007-0.021-0.013-0.041-0.02-0.062c-0.007-0.021-0.013-0.041-0.02-0.062
		c-0.007-0.021-0.013-0.041-0.02-0.063c-0.006-0.021-0.012-0.042-0.018-0.062c-0.006-0.021-0.012-0.041-0.018-0.062
		c-0.006-0.021-0.011-0.041-0.017-0.063s-0.011-0.041-0.017-0.063c-0.005-0.021-0.01-0.041-0.016-0.062
		c-0.005-0.021-0.01-0.042-0.015-0.062c-0.005-0.021-0.01-0.041-0.014-0.063c-0.005-0.021-0.009-0.042-0.014-0.063
		c-0.005-0.02-0.008-0.041-0.013-0.062c-0.004-0.021-0.008-0.041-0.012-0.062c-0.004-0.021-0.008-0.041-0.011-0.063
		c-0.004-0.021-0.008-0.041-0.011-0.063c-0.003-0.021-0.007-0.041-0.01-0.062c-0.003-0.021-0.006-0.041-0.01-0.062
		c-0.003-0.021-0.006-0.043-0.009-0.063s-0.006-0.041-0.008-0.063c-0.002-0.021-0.005-0.041-0.008-0.062s-0.005-0.041-0.007-0.062
		c-0.002-0.021-0.005-0.041-0.007-0.063s-0.004-0.042-0.006-0.063c-0.002-0.02-0.003-0.041-0.005-0.062
		c-0.001-0.021-0.003-0.042-0.004-0.062c-0.001-0.021-0.003-0.041-0.004-0.063s-0.003-0.042-0.004-0.063
		c-0.001-0.02-0.002-0.041-0.003-0.062c0-0.021-0.001-0.041-0.002-0.062c0-0.021-0.001-0.043-0.001-0.063s-0.001-0.041-0.001-0.063
		c0-0.021,0-0.041,0-0.062c0-0.011,0-0.021,0-0.032c0-0.01,0-0.02,0-0.029c0-0.021,0-0.043,0.001-0.063c0-0.021,0-0.042,0.001-0.062
		c0-0.021,0-0.041,0.001-0.063c0-0.021,0.001-0.042,0.002-0.062s0.002-0.041,0.003-0.063c0.001-0.021,0.002-0.041,0.003-0.062
		s0.003-0.041,0.004-0.062c0.001-0.021,0.003-0.041,0.005-0.063c0.001-0.021,0.003-0.042,0.004-0.063
		c0.002-0.021,0.004-0.041,0.006-0.062s0.004-0.042,0.006-0.062c0.002-0.021,0.004-0.041,0.006-0.063s0.006-0.042,0.008-0.063
		c0.002-0.02,0.005-0.041,0.008-0.062c0.003-0.021,0.005-0.041,0.008-0.062c0.003-0.021,0.007-0.043,0.01-0.063
		c0.003-0.021,0.006-0.041,0.01-0.063c0.003-0.021,0.006-0.041,0.01-0.062c0.004-0.021,0.008-0.041,0.012-0.062
		c0.004-0.021,0.008-0.041,0.012-0.063c0.004-0.021,0.007-0.041,0.012-0.063c0.004-0.021,0.009-0.041,0.014-0.062
		s0.009-0.042,0.013-0.062c0.005-0.021,0.009-0.041,0.014-0.063s0.01-0.042,0.015-0.063s0.01-0.041,0.016-0.062
		c0.006-0.021,0.01-0.041,0.016-0.062c0.006-0.021,0.012-0.041,0.018-0.063c0.006-0.021,0.011-0.041,0.017-0.063
		c0.006-0.021,0.012-0.041,0.018-0.062s0.013-0.041,0.019-0.062c0.006-0.021,0.013-0.043,0.02-0.063
		c0.006-0.021,0.013-0.042,0.02-0.062c0.007-0.021,0.014-0.042,0.021-0.063c0.007-0.021,0.014-0.042,0.021-0.062
		c0.007-0.02,0.015-0.041,0.022-0.063c0.007-0.021,0.015-0.042,0.023-0.062c0.008-0.021,0.015-0.042,0.023-0.062
		c0.008-0.021,0.017-0.043,0.025-0.063c0.008-0.02,0.017-0.041,0.025-0.063c0.008-0.021,0.017-0.041,0.025-0.062
		c0.009-0.021,0.018-0.042,0.027-0.062c0.009-0.021,0.018-0.041,0.027-0.063c0.009-0.021,0.018-0.042,0.027-0.063
		c0.01-0.021,0.02-0.041,0.029-0.062c0.01-0.021,0.019-0.042,0.029-0.062c0.01-0.021,0.02-0.041,0.03-0.063
		c0.01-0.021,0.021-0.041,0.031-0.063c0.01-0.021,0.021-0.041,0.031-0.062c0.01-0.021,0.022-0.041,0.033-0.062
		c0.011-0.021,0.022-0.041,0.033-0.063c0.011-0.021,0.022-0.042,0.034-0.063c0.012-0.02,0.023-0.041,0.035-0.062
		c0.012-0.021,0.023-0.042,0.036-0.062c0.013-0.021,0.024-0.041,0.037-0.063c0.013-0.021,0.025-0.042,0.038-0.063
		c0.013-0.02,0.025-0.041,0.038-0.062c0.013-0.021,0.026-0.042,0.04-0.062c0.014-0.021,0.026-0.043,0.04-0.063
		s0.027-0.041,0.041-0.063c0.014-0.021,0.028-0.041,0.042-0.062s0.028-0.041,0.042-0.062c0.015-0.021,0.03-0.043,0.045-0.063
		c0.015-0.021,0.029-0.041,0.044-0.063c0.015-0.021,0.03-0.041,0.046-0.062c0.016-0.02,0.031-0.041,0.047-0.062
		c0.016-0.021,0.032-0.042,0.048-0.063s0.033-0.042,0.049-0.062c0.016-0.021,0.033-0.041,0.049-0.062
		c0.017-0.021,0.035-0.043,0.052-0.063c0.018-0.021,0.035-0.042,0.052-0.063c0.018-0.021,0.036-0.041,0.054-0.062
		c0.018-0.021,0.036-0.042,0.055-0.062c0.019-0.021,0.037-0.041,0.056-0.063s0.038-0.042,0.057-0.063
		c0.02-0.021,0.039-0.041,0.058-0.062c0.02-0.021,0.04-0.042,0.06-0.062c0.021-0.021,0.04-0.043,0.061-0.063
		c0.021-0.021,0.042-0.041,0.063-0.063c0.021-0.021,0.042-0.041,0.063-0.062c0.022-0.021,0.044-0.041,0.066-0.062
		c0.022-0.021,0.044-0.043,0.066-0.063c0.023-0.021,0.046-0.041,0.069-0.063c0.023-0.021,0.046-0.041,0.07-0.062
		s0.048-0.041,0.072-0.062c0.024-0.021,0.049-0.043,0.073-0.063c0.025-0.021,0.05-0.042,0.076-0.063
		c0.026-0.02,0.051-0.041,0.077-0.062c0.026-0.021,0.053-0.042,0.08-0.062c0.027-0.021,0.053-0.043,0.081-0.063
		c0.028-0.021,0.056-0.042,0.083-0.063c0.028-0.021,0.057-0.041,0.085-0.062c0.029-0.021,0.059-0.041,0.089-0.062
		c0.029-0.021,0.059-0.043,0.089-0.063c0.031-0.021,0.062-0.041,0.093-0.063c0.032-0.021,0.063-0.041,0.096-0.062
		c0.033-0.02,0.065-0.042,0.098-0.062c0.034-0.021,0.068-0.043,0.102-0.063c0.034-0.02,0.069-0.042,0.104-0.062
		c0.036-0.021,0.073-0.041,0.109-0.062c0.037-0.021,0.075-0.043,0.112-0.063c0.038-0.021,0.076-0.042,0.115-0.063
		c0.041-0.021,0.081-0.041,0.122-0.062c0.042-0.021,0.083-0.042,0.125-0.062c0.043-0.021,0.086-0.043,0.13-0.063
		c0.045-0.021,0.09-0.042,0.136-0.063c0.047-0.021,0.095-0.041,0.143-0.062c0.049-0.021,0.099-0.042,0.149-0.062
		c0.052-0.021,0.104-0.043,0.157-0.063c0.055-0.021,0.11-0.042,0.166-0.063c0.059-0.021,0.118-0.041,0.177-0.062
		c0.063-0.021,0.126-0.042,0.19-0.062c0.068-0.021,0.137-0.043,0.206-0.063c0.075-0.021,0.15-0.042,0.226-0.063
		c0.083-0.021,0.167-0.041,0.25-0.062c0.094-0.022,0.188-0.042,0.283-0.062c0.113-0.023,0.227-0.043,0.341-0.063
		C69.049,228.105,69.195,228.084,69.343,228.066L69.343,228.066z M76.443,237.999c-0.423,0-0.85,0.437-0.85,0.869
		c0,0.438,0.427,0.868,0.85,0.868c0.642,0,1.063-0.43,1.063-0.868C77.506,238.434,77.085,237.999,76.443,237.999L76.443,237.999z
		 M81.115,237.999c-0.42,0-0.844,0.437-0.844,0.869c0,0.438,0.424,0.868,0.844,0.868c0.637,0,1.063-0.43,1.063-0.868
		C82.178,238.434,81.752,237.999,81.115,237.999L81.115,237.999z M67.735,231.695c-0.636,0-1.279,0.43-1.279,1.082
		s0.643,1.089,1.279,1.089c0.637,0,1.061-0.437,1.061-1.089C68.795,232.125,68.372,231.695,67.735,231.695L67.735,231.695z
		 M73.68,233.867c0.64,0,1.063-0.436,1.063-1.088c0-0.653-0.424-1.084-1.063-1.084c-0.637,0-1.275,0.431-1.275,1.084
		C72.405,233.432,73.043,233.867,73.68,233.867L73.68,233.867z M73.438,236.57c0.018-0.019,0.037-0.035,0.056-0.053
		c0.019-0.019,0.037-0.035,0.056-0.053c0.019-0.018,0.039-0.035,0.058-0.053c0.02-0.018,0.039-0.035,0.059-0.053
		s0.041-0.034,0.061-0.053c0.021-0.018,0.041-0.035,0.062-0.052c0.021-0.019,0.042-0.034,0.064-0.053s0.043-0.035,0.065-0.052
		c0.022-0.019,0.045-0.035,0.067-0.053c0.023-0.019,0.045-0.035,0.068-0.053c0.023-0.018,0.047-0.035,0.071-0.053
		s0.048-0.035,0.072-0.053c0.024-0.018,0.049-0.034,0.074-0.053c0.025-0.018,0.051-0.035,0.077-0.052
		c0.026-0.019,0.052-0.036,0.078-0.053c0.027-0.019,0.054-0.035,0.082-0.052c0.027-0.019,0.055-0.037,0.083-0.053
		c0.029-0.019,0.058-0.035,0.086-0.053c0.03-0.018,0.059-0.036,0.089-0.053c0.03-0.018,0.061-0.035,0.091-0.053
		c0.031-0.019,0.063-0.035,0.095-0.053c0.033-0.018,0.065-0.035,0.098-0.053c0.034-0.018,0.067-0.035,0.102-0.052
		c0.035-0.019,0.071-0.035,0.106-0.054c0.037-0.018,0.074-0.035,0.11-0.052c0.038-0.018,0.076-0.034,0.114-0.053
		c0.041-0.019,0.081-0.035,0.121-0.052c0.042-0.018,0.084-0.036,0.127-0.053c0.044-0.019,0.089-0.035,0.133-0.053
		c0.047-0.018,0.094-0.035,0.142-0.053c0.049-0.018,0.1-0.035,0.15-0.053c0.053-0.018,0.107-0.035,0.161-0.053
		c0.058-0.018,0.116-0.035,0.175-0.052c0.063-0.019,0.127-0.036,0.191-0.053c0.071-0.019,0.142-0.036,0.213-0.052
		c0.079-0.02,0.159-0.036,0.24-0.053c0.096-0.02,0.193-0.037,0.291-0.053c0.124-0.021,0.249-0.038,0.375-0.053
		c0.313-0.037,0.634-0.057,0.96-0.057h0.045c0.308,0,0.614,0.021,0.915,0.057c0.121,0.015,0.241,0.031,0.361,0.053
		c0.094,0.016,0.188,0.033,0.281,0.053c0.078,0.017,0.156,0.033,0.233,0.053c0.069,0.017,0.139,0.033,0.207,0.052
		c0.063,0.017,0.125,0.034,0.187,0.053c0.058,0.017,0.114,0.034,0.171,0.052c0.053,0.018,0.105,0.035,0.158,0.053
		c0.05,0.018,0.099,0.035,0.148,0.053c0.047,0.018,0.093,0.035,0.14,0.053c0.044,0.018,0.088,0.035,0.132,0.053
		c0.042,0.017,0.084,0.035,0.126,0.053c0.04,0.017,0.081,0.035,0.12,0.052c0.038,0.019,0.076,0.035,0.114,0.053
		c0.037,0.017,0.073,0.035,0.11,0.052c0.036,0.019,0.071,0.035,0.106,0.054c0.034,0.017,0.068,0.034,0.102,0.052
		c0.033,0.018,0.065,0.035,0.098,0.053c0.033,0.018,0.064,0.035,0.096,0.053c0.031,0.018,0.061,0.035,0.092,0.053
		c0.03,0.018,0.059,0.035,0.089,0.053c0.029,0.018,0.058,0.035,0.087,0.053c0.028,0.016,0.056,0.034,0.083,0.053
		c0.028,0.017,0.055,0.035,0.083,0.052c0.026,0.017,0.052,0.034,0.079,0.053c0.026,0.017,0.052,0.035,0.077,0.052
		c0.025,0.018,0.05,0.035,0.075,0.053s0.049,0.035,0.073,0.053s0.048,0.035,0.072,0.053c0.023,0.018,0.046,0.035,0.069,0.053
		c0.023,0.017,0.046,0.034,0.068,0.053c0.022,0.017,0.044,0.035,0.066,0.052s0.044,0.034,0.065,0.053
		c0.021,0.017,0.042,0.035,0.063,0.052c0.021,0.019,0.042,0.035,0.062,0.053c0.021,0.018,0.041,0.035,0.06,0.053
		c0.02,0.018,0.04,0.035,0.06,0.053s0.039,0.035,0.058,0.053c0.019,0.017,0.038,0.034,0.057,0.053
		c0.019,0.018,0.037,0.035,0.055,0.052c0.019,0.019,0.037,0.035,0.055,0.053c0.018,0.017,0.035,0.035,0.053,0.054
		c0.018,0.017,0.035,0.035,0.052,0.051c0.017,0.018,0.035,0.035,0.051,0.053s0.033,0.035,0.049,0.053
		c0.017,0.018,0.033,0.035,0.049,0.053s0.032,0.035,0.047,0.053c0.015,0.017,0.031,0.035,0.047,0.053
		c0.016,0.018,0.03,0.035,0.045,0.052c0.015,0.017,0.03,0.035,0.045,0.054c0.015,0.017,0.029,0.035,0.044,0.052
		c0.014,0.018,0.028,0.034,0.043,0.053c0.014,0.019,0.028,0.035,0.042,0.052c0.014,0.019,0.027,0.035,0.041,0.053
		s0.027,0.035,0.041,0.053c0.014,0.017,0.026,0.035,0.04,0.053c0.013,0.018,0.025,0.035,0.038,0.053
		c0.013,0.018,0.026,0.034,0.039,0.053c0.012,0.017,0.024,0.035,0.036,0.052c0.013,0.019,0.025,0.034,0.037,0.053
		s0.023,0.035,0.035,0.052c0.012,0.018,0.023,0.035,0.035,0.053c0.012,0.019,0.023,0.035,0.035,0.053
		c0.011,0.018,0.021,0.035,0.033,0.053c0.011,0.018,0.022,0.035,0.033,0.053c0.01,0.018,0.021,0.035,0.031,0.053
		c0.011,0.018,0.021,0.035,0.031,0.053c0.01,0.018,0.021,0.035,0.031,0.052c0.01,0.019,0.019,0.035,0.029,0.054
		c0.01,0.017,0.02,0.035,0.029,0.051c0.009,0.019,0.019,0.035,0.028,0.054c0.009,0.017,0.018,0.035,0.027,0.052
		c0.009,0.018,0.018,0.035,0.027,0.053c0.009,0.018,0.018,0.035,0.026,0.053c0.008,0.017,0.017,0.035,0.025,0.053
		c0.008,0.018,0.017,0.035,0.025,0.052s0.016,0.035,0.024,0.054c0.008,0.017,0.016,0.035,0.023,0.052
		c0.007,0.017,0.016,0.034,0.023,0.053c0.008,0.017,0.015,0.035,0.022,0.052c0.007,0.018,0.015,0.035,0.022,0.053
		c0.007,0.018,0.015,0.035,0.021,0.053c0.006,0.017,0.014,0.035,0.02,0.053c0.007,0.018,0.014,0.035,0.021,0.053
		c0.007,0.016,0.013,0.034,0.019,0.053c0.006,0.018,0.013,0.035,0.019,0.052c0.006,0.018,0.013,0.034,0.019,0.053
		s0.011,0.035,0.017,0.052c0.006,0.019,0.011,0.035,0.017,0.053c0.005,0.019,0.011,0.035,0.017,0.053
		c0.005,0.018,0.01,0.035,0.016,0.053c0.006,0.018,0.01,0.035,0.015,0.053s0.011,0.034,0.016,0.053
		c0.004,0.018,0.009,0.035,0.014,0.053c0.004,0.018,0.009,0.035,0.014,0.052c0.004,0.019,0.009,0.035,0.013,0.054
		c0.004,0.017,0.008,0.034,0.012,0.051c0.004,0.018,0.008,0.035,0.012,0.054c0.004,0.017,0.008,0.035,0.012,0.052
		c0.003,0.018,0.007,0.035,0.01,0.053s0.007,0.035,0.01,0.053c0.003,0.017,0.007,0.035,0.01,0.053s0.006,0.035,0.009,0.052
		c0.003,0.019,0.006,0.035,0.009,0.054c0.003,0.018,0.006,0.035,0.008,0.051c0.003,0.019,0.005,0.035,0.007,0.054
		s0.005,0.035,0.007,0.052c0.002,0.018,0.004,0.035,0.007,0.053c0.002,0.018,0.003,0.035,0.005,0.053
		c0.002,0.017,0.004,0.035,0.006,0.053c0.001,0.018,0.003,0.035,0.005,0.052c0.001,0.019,0.002,0.035,0.004,0.054
		c0.002,0.018,0.002,0.035,0.004,0.052c0.001,0.018,0.003,0.034,0.004,0.053s0.001,0.035,0.002,0.052
		c0,0.019,0.001,0.035,0.002,0.053c0,0.019,0.001,0.035,0.002,0.054c0,0.017,0,0.034,0.001,0.052s0,0.035,0.001,0.053v0.016v0.037
		v0.053v0.009c0,0.015,0,0.029,0,0.043c0,0.019-0.001,0.035-0.002,0.054c0,0.018-0.001,0.034-0.002,0.051
		c-0.001,0.018-0.001,0.035-0.002,0.054c-0.001,0.017-0.002,0.035-0.003,0.052c-0.001,0.018-0.002,0.035-0.004,0.053
		c-0.002,0.019-0.003,0.035-0.005,0.053c-0.001,0.018-0.003,0.035-0.005,0.053s-0.004,0.035-0.006,0.052
		c-0.002,0.019-0.004,0.035-0.006,0.054c-0.002,0.018-0.004,0.035-0.007,0.051c-0.002,0.019-0.005,0.035-0.008,0.054
		c-0.003,0.019-0.005,0.035-0.008,0.052c-0.002,0.018-0.006,0.035-0.009,0.053c-0.003,0.019-0.006,0.035-0.009,0.054
		c-0.003,0.017-0.006,0.034-0.01,0.052s-0.007,0.035-0.011,0.052c-0.003,0.019-0.007,0.035-0.011,0.054
		c-0.004,0.018-0.008,0.035-0.012,0.053c-0.004,0.017-0.008,0.035-0.013,0.052c-0.004,0.019-0.008,0.035-0.013,0.052
		c-0.004,0.018-0.009,0.035-0.014,0.053c-0.004,0.019-0.009,0.035-0.014,0.054c-0.005,0.018-0.01,0.034-0.015,0.052
		s-0.01,0.035-0.016,0.053c-0.005,0.018-0.011,0.034-0.016,0.053c-0.006,0.018-0.011,0.035-0.017,0.053
		c-0.006,0.018-0.011,0.035-0.018,0.052c-0.006,0.019-0.012,0.035-0.018,0.054c-0.006,0.018-0.012,0.034-0.019,0.051
		c-0.006,0.019-0.012,0.035-0.019,0.054c-0.006,0.017-0.013,0.034-0.02,0.052s-0.014,0.035-0.021,0.053
		c-0.007,0.019-0.014,0.035-0.021,0.053s-0.015,0.035-0.022,0.053s-0.015,0.035-0.022,0.052c-0.008,0.019-0.016,0.035-0.023,0.054
		c-0.007,0.018-0.016,0.034-0.024,0.051c-0.008,0.019-0.016,0.035-0.024,0.054c-0.008,0.019-0.017,0.035-0.025,0.052
		c-0.008,0.018-0.017,0.035-0.026,0.053c-0.009,0.019-0.017,0.035-0.026,0.053c-0.009,0.018-0.018,0.035-0.027,0.053
		c-0.009,0.018-0.018,0.035-0.027,0.052c-0.009,0.019-0.019,0.035-0.029,0.054c-0.009,0.018-0.019,0.035-0.029,0.053
		c-0.01,0.017-0.02,0.035-0.03,0.052c-0.01,0.019-0.021,0.035-0.031,0.053c-0.01,0.017-0.021,0.035-0.031,0.052
		c-0.01,0.019-0.021,0.035-0.032,0.054c-0.01,0.018-0.021,0.034-0.032,0.052c-0.011,0.018-0.022,0.035-0.033,0.052
		c-0.011,0.019-0.022,0.036-0.034,0.054c-0.012,0.018-0.023,0.035-0.035,0.053c-0.012,0.018-0.023,0.035-0.036,0.052
		c-0.012,0.019-0.023,0.035-0.036,0.054c-0.013,0.018-0.024,0.034-0.037,0.051c-0.013,0.018-0.025,0.035-0.038,0.054
		c-0.013,0.018-0.025,0.034-0.038,0.052c-0.013,0.018-0.025,0.035-0.039,0.053c-0.014,0.019-0.026,0.035-0.04,0.053
		c-0.013,0.018-0.027,0.035-0.04,0.053c-0.014,0.018-0.027,0.035-0.041,0.052c-0.014,0.019-0.028,0.035-0.042,0.054
		c-0.014,0.018-0.028,0.034-0.042,0.051c-0.014,0.019-0.028,0.035-0.043,0.054c-0.015,0.019-0.029,0.035-0.044,0.052
		c-0.015,0.018-0.03,0.035-0.045,0.053c-0.015,0.019-0.03,0.035-0.045,0.053c-0.015,0.019-0.03,0.035-0.046,0.053
		s-0.031,0.035-0.047,0.053c-0.016,0.018-0.032,0.035-0.048,0.053c-0.016,0.017-0.032,0.035-0.048,0.053s-0.033,0.035-0.049,0.052
		c-0.016,0.017-0.034,0.035-0.05,0.053c-0.017,0.017-0.034,0.035-0.051,0.052c-0.018,0.019-0.035,0.035-0.052,0.054
		c-0.018,0.018-0.035,0.034-0.053,0.052s-0.036,0.035-0.054,0.053s-0.036,0.035-0.054,0.053c-0.019,0.018-0.037,0.035-0.055,0.053
		s-0.038,0.035-0.056,0.052c-0.019,0.019-0.038,0.035-0.057,0.054c-0.019,0.018-0.039,0.034-0.058,0.051
		c-0.02,0.019-0.039,0.035-0.059,0.054c-0.02,0.018-0.04,0.034-0.059,0.052c-0.021,0.018-0.041,0.035-0.061,0.053
		c-0.02,0.019-0.041,0.035-0.062,0.053s-0.042,0.035-0.063,0.053s-0.042,0.035-0.063,0.053s-0.043,0.035-0.064,0.053
		c-0.021,0.017-0.043,0.034-0.065,0.051c-0.022,0.019-0.044,0.035-0.066,0.054s-0.045,0.034-0.067,0.053l-0.023,0.019l0.01,0.033
		l0.016,0.053l0.016,0.053l0.015,0.053l0.016,0.053l0.015,0.053l0.016,0.052l0.016,0.053l0.015,0.052l0.016,0.053l0.015,0.053
		l0.016,0.053l0.016,0.053l0.016,0.053l0.015,0.052l0.016,0.053l0.015,0.052l0.016,0.054l0.016,0.052l0.015,0.053l0.016,0.053
		l0.016,0.053l0.015,0.053l0.016,0.053l0.015,0.051l0.016,0.054l0.016,0.053l0.015,0.052l0.016,0.053l0.016,0.053l0.015,0.053
		l0.016,0.053l0.015,0.053l0.016,0.052l0.016,0.053l0.015,0.052l0.016,0.053l0.016,0.053l0.015,0.053l0.016,0.053l0.016,0.053
		L83.664,248l-0.067-0.037l-0.094-0.053l-0.094-0.053l-0.093-0.053l-0.094-0.052l-0.094-0.053l-0.094-0.052l-0.094-0.053
		l-0.094-0.053l-0.094-0.053l-0.094-0.053l-0.093-0.053l-0.094-0.052l-0.094-0.053l-0.094-0.052l-0.094-0.054l-0.094-0.053
		l-0.094-0.052l-0.094-0.053l-0.093-0.053l-0.094-0.053l-0.094-0.053l-0.094-0.053l-0.094-0.052l-0.094-0.053l-0.015-0.009
		l-0.032,0.009c-0.068,0.019-0.137,0.035-0.205,0.053c-0.07,0.019-0.139,0.035-0.209,0.052c-0.071,0.019-0.143,0.037-0.215,0.053
		c-0.075,0.019-0.15,0.037-0.226,0.053c-0.081,0.02-0.162,0.036-0.243,0.053c-0.09,0.02-0.181,0.036-0.271,0.053
		c-0.109,0.021-0.219,0.037-0.329,0.053c-0.177,0.023-0.354,0.042-0.531,0.052c-0.096,0.005-0.192,0.008-0.288,0.008
		c-0.125,0-0.25-0.002-0.374-0.008c-0.216-0.009-0.428-0.026-0.638-0.052c-0.124-0.016-0.246-0.032-0.368-0.053
		c-0.096-0.016-0.192-0.033-0.287-0.053c-0.08-0.016-0.16-0.033-0.239-0.053c-0.071-0.018-0.142-0.034-0.211-0.053
		c-0.064-0.016-0.127-0.033-0.19-0.053c-0.058-0.017-0.116-0.033-0.174-0.052c-0.054-0.017-0.107-0.034-0.16-0.053
		c-0.05-0.017-0.1-0.034-0.15-0.052c-0.047-0.018-0.094-0.035-0.141-0.053c-0.044-0.018-0.089-0.035-0.133-0.053
		c-0.042-0.017-0.085-0.035-0.127-0.053c-0.041-0.018-0.081-0.034-0.121-0.053c-0.038-0.017-0.076-0.034-0.114-0.053
		c-0.037-0.017-0.073-0.035-0.11-0.052c-0.036-0.019-0.071-0.035-0.106-0.053c-0.034-0.017-0.068-0.035-0.102-0.052
		c-0.033-0.019-0.065-0.035-0.098-0.053c-0.032-0.018-0.063-0.035-0.095-0.053c-0.03-0.018-0.061-0.035-0.091-0.053
		c-0.029-0.018-0.059-0.035-0.088-0.053c-0.029-0.017-0.058-0.035-0.087-0.053c-0.028-0.017-0.055-0.035-0.082-0.053
		c-0.027-0.018-0.055-0.035-0.082-0.052c-0.026-0.017-0.052-0.035-0.078-0.052c-0.025-0.019-0.051-0.035-0.076-0.054
		c-0.025-0.018-0.05-0.034-0.075-0.053c-0.024-0.017-0.048-0.035-0.072-0.052c-0.023-0.018-0.047-0.035-0.071-0.053
		c-0.023-0.018-0.045-0.035-0.068-0.053c-0.023-0.018-0.045-0.035-0.067-0.053s-0.043-0.035-0.065-0.053
		c-0.022-0.016-0.043-0.034-0.064-0.053c-0.021-0.017-0.041-0.035-0.062-0.052s-0.041-0.034-0.062-0.053
		c-0.02-0.017-0.039-0.035-0.059-0.052c-0.019-0.019-0.039-0.035-0.058-0.053c-0.019-0.018-0.038-0.035-0.056-0.053
		c-0.018-0.017-0.037-0.035-0.056-0.053c-0.018-0.018-0.036-0.035-0.053-0.053c-0.018-0.018-0.036-0.034-0.053-0.053
		c-0.018-0.017-0.035-0.035-0.052-0.052c-0.017-0.019-0.034-0.034-0.05-0.053s-0.033-0.035-0.049-0.052
		c-0.017-0.019-0.032-0.035-0.048-0.053c-0.016-0.019-0.032-0.035-0.048-0.053c-0.015-0.018-0.03-0.035-0.045-0.053
		c-0.016-0.018-0.031-0.035-0.046-0.053s-0.029-0.034-0.044-0.053c-0.015-0.018-0.029-0.035-0.043-0.052
		c-0.014-0.017-0.028-0.035-0.042-0.053c-0.014-0.019-0.027-0.035-0.041-0.054c-0.014-0.017-0.028-0.035-0.041-0.051
		c-0.014-0.018-0.026-0.035-0.04-0.054s-0.026-0.035-0.039-0.052c-0.013-0.018-0.025-0.035-0.038-0.053
		c-0.013-0.018-0.025-0.035-0.038-0.053c-0.012-0.018-0.024-0.035-0.037-0.053c-0.012-0.018-0.023-0.035-0.035-0.052
		c-0.012-0.017-0.023-0.035-0.035-0.054c-0.011-0.017-0.022-0.035-0.034-0.052c-0.012-0.017-0.022-0.034-0.033-0.053
		c-0.011-0.019-0.022-0.035-0.033-0.052c-0.011-0.018-0.021-0.035-0.032-0.053c-0.01-0.019-0.021-0.035-0.031-0.053
		c-0.01-0.017-0.02-0.035-0.03-0.053c-0.01-0.018-0.02-0.035-0.03-0.053c-0.009-0.018-0.02-0.035-0.029-0.053
		c-0.009-0.017-0.019-0.035-0.028-0.052c-0.009-0.018-0.019-0.034-0.028-0.053c-0.009-0.019-0.018-0.035-0.027-0.052
		c-0.009-0.019-0.017-0.035-0.026-0.053c-0.009-0.019-0.018-0.035-0.026-0.053c-0.008-0.018-0.016-0.035-0.024-0.053
		c-0.008-0.018-0.016-0.035-0.024-0.053c-0.008-0.018-0.016-0.035-0.024-0.053c-0.008-0.017-0.015-0.035-0.023-0.053
		c-0.007-0.018-0.015-0.035-0.022-0.052s-0.015-0.035-0.022-0.054c-0.007-0.017-0.014-0.034-0.021-0.051
		c-0.007-0.018-0.014-0.035-0.021-0.054c-0.007-0.017-0.014-0.035-0.02-0.052c-0.007-0.018-0.013-0.035-0.02-0.053
		c-0.006-0.018-0.013-0.035-0.019-0.053c-0.006-0.017-0.012-0.035-0.018-0.053c-0.006-0.018-0.012-0.035-0.018-0.052
		c-0.006-0.017-0.012-0.035-0.018-0.054c-0.005-0.018-0.011-0.035-0.016-0.052c-0.005-0.018-0.011-0.034-0.016-0.053
		s-0.011-0.035-0.016-0.052c-0.005-0.018-0.009-0.035-0.014-0.053c-0.005-0.019-0.01-0.035-0.015-0.053
		c-0.004-0.018-0.01-0.035-0.014-0.053s-0.009-0.035-0.013-0.053c-0.004-0.018-0.008-0.035-0.013-0.053
		c-0.005-0.017-0.009-0.035-0.013-0.052s-0.007-0.034-0.011-0.053s-0.008-0.035-0.011-0.054c-0.004-0.017-0.008-0.034-0.011-0.051
		c-0.003-0.018-0.006-0.035-0.01-0.053c-0.003-0.018-0.007-0.035-0.01-0.053s-0.006-0.035-0.009-0.053s-0.005-0.035-0.008-0.053
		c-0.003-0.017-0.006-0.035-0.008-0.052c-0.003-0.019-0.005-0.034-0.008-0.053s-0.004-0.035-0.007-0.054
		c-0.002-0.017-0.005-0.034-0.007-0.051c-0.002-0.018-0.004-0.035-0.006-0.054c-0.002-0.017-0.003-0.035-0.005-0.052
		c-0.001-0.018-0.003-0.035-0.005-0.053s-0.003-0.035-0.005-0.053c-0.001-0.018-0.002-0.035-0.004-0.053s-0.002-0.035-0.004-0.052
		c-0.001-0.019-0.002-0.035-0.003-0.054c-0.001-0.018-0.001-0.035-0.002-0.051l-0.002-0.054c0-0.019-0.001-0.035-0.002-0.052
		c-0.001-0.018,0-0.035-0.001-0.053v-0.053c0-0.017-0.001-0.033-0.001-0.051v-0.002c0-0.018,0.001-0.035,0.001-0.052
		s0-0.035,0-0.054c0-0.018,0-0.035,0.001-0.052c0-0.018,0.001-0.034,0.002-0.053s0.001-0.035,0.002-0.054
		c0.001-0.016,0.001-0.034,0.002-0.051c0.001-0.018,0.002-0.035,0.003-0.054c0.001-0.017,0.002-0.034,0.003-0.052
		s0.002-0.035,0.004-0.053c0.002-0.019,0.003-0.035,0.005-0.053s0.003-0.035,0.005-0.053s0.003-0.035,0.005-0.052
		c0.002-0.019,0.004-0.035,0.006-0.054c0.002-0.018,0.005-0.034,0.007-0.051c0.002-0.019,0.004-0.035,0.007-0.054
		s0.005-0.034,0.008-0.052c0.003-0.018,0.006-0.035,0.008-0.053c0.003-0.018,0.005-0.035,0.008-0.053
		c0.003-0.017,0.006-0.035,0.01-0.053c0.003-0.018,0.006-0.035,0.01-0.052c0.003-0.019,0.006-0.035,0.01-0.054
		c0.004-0.018,0.007-0.034,0.011-0.051c0.003-0.019,0.007-0.035,0.011-0.054s0.007-0.035,0.012-0.052
		c0.004-0.018,0.008-0.035,0.013-0.053c0.004-0.019,0.008-0.035,0.013-0.053c0.004-0.018,0.008-0.035,0.013-0.053
		c0.004-0.018,0.009-0.035,0.014-0.053s0.01-0.035,0.015-0.053c0.005-0.017,0.009-0.035,0.015-0.053
		c0.005-0.017,0.011-0.035,0.016-0.052s0.01-0.035,0.016-0.053c0.005-0.017,0.011-0.035,0.016-0.052
		c0.006-0.019,0.012-0.035,0.018-0.054c0.005-0.017,0.011-0.034,0.018-0.052c0.006-0.018,0.012-0.035,0.018-0.053
		c0.006-0.019,0.013-0.035,0.02-0.053c0.007-0.017,0.013-0.035,0.019-0.053c0.007-0.018,0.014-0.035,0.021-0.052
		c0.007-0.019,0.014-0.035,0.021-0.054c0.007-0.018,0.014-0.034,0.021-0.051c0.007-0.019,0.015-0.035,0.022-0.054
		c0.007-0.018,0.015-0.034,0.023-0.052c0.007-0.018,0.015-0.035,0.022-0.053c0.007-0.019,0.016-0.035,0.024-0.053
		c0.008-0.018,0.016-0.035,0.024-0.053c0.008-0.018,0.016-0.035,0.025-0.052c0.008-0.019,0.017-0.035,0.026-0.054
		c0.009-0.018,0.017-0.034,0.026-0.051c0.009-0.019,0.018-0.035,0.027-0.054c0.009-0.019,0.019-0.035,0.028-0.052
		c0.009-0.018,0.019-0.035,0.028-0.053c0.01-0.019,0.02-0.035,0.03-0.053c0.01-0.018,0.02-0.035,0.029-0.053
		c0.01-0.018,0.02-0.035,0.03-0.052c0.011-0.019,0.021-0.035,0.032-0.054c0.01-0.018,0.021-0.035,0.031-0.053
		c0.01-0.018,0.022-0.035,0.033-0.052c0.011-0.019,0.022-0.035,0.033-0.053c0.011-0.019,0.022-0.035,0.034-0.052
		c0.012-0.019,0.023-0.035,0.036-0.054c0.012-0.017,0.023-0.034,0.035-0.052c0.012-0.018,0.024-0.035,0.037-0.053
		c0.013-0.018,0.025-0.035,0.037-0.053c0.013-0.018,0.025-0.035,0.038-0.053c0.013-0.018,0.026-0.035,0.04-0.052
		c0.013-0.019,0.026-0.035,0.039-0.054c0.014-0.018,0.027-0.034,0.041-0.051c0.014-0.019,0.028-0.035,0.042-0.054
		c0.014-0.018,0.028-0.034,0.042-0.052c0.015-0.018,0.029-0.035,0.043-0.053c0.014-0.019,0.029-0.035,0.044-0.053
		s0.031-0.035,0.046-0.053c0.016-0.018,0.03-0.035,0.046-0.052c0.016-0.019,0.032-0.035,0.048-0.054
		c0.016-0.018,0.032-0.034,0.048-0.053c0.016-0.018,0.033-0.035,0.049-0.052c0.017-0.019,0.034-0.034,0.051-0.052
		s0.034-0.036,0.052-0.053c0.018-0.019,0.035-0.035,0.053-0.053C73.401,236.605,73.419,236.588,73.438,236.57L73.438,236.57z"/>
</g>
<g>
	<circle fill="#42AAE8" cx="28" cy="238" r="18"/>
	<path fill="#FFFFFF" d="M20.488,237.626c0,0-0.113-1.149,0.667-2.012c0,0,0.042-0.036,0.128-0.05c0,0-0.998-5.51,3.921-7.565
		c0,0,2.744-1.123,5.468,0c0,0,4.579,1.731,3.917,7.647c0,0,0.111-0.133,0.21,0c0,0,0.593,0.677,0.575,1.817
		c0,0,2.176,2.169,1.495,5.746c0,0-0.255,1.626-1.429-0.104c0,0-0.397-0.57-0.511-0.828c0,0-0.151,1.799-1.618,3.054
		c0,0,1.788,0.522,1.655,1.513c0,0,0.047,1.494-3.396,1.655c0,0-2.327,0.085-3.188-1.199h-0.766c0,0-0.549,1.201-3.131,1.2
		c0,0-3.198,0.046-3.396-1.751c0,0,0.029-0.999,1.646-1.351c0,0-1.306-1.095-1.684-3.055c0,0-1.542,2.911-1.93,0.742
		c0,0-0.728-2.75,1.391-5.402L20.488,237.626z"/>
</g>
<g>
	<circle fill="#FF3333" cx="120" cy="284" r="18"/>
	<g>
		<path fill="#FF4D4D" d="M109.764,287.754c0,2.875,3.639,5.207,8.128,5.207c4.489,0,8.127-2.332,8.127-5.207
			s-3.639-5.207-8.127-5.207C113.403,282.547,109.764,284.879,109.764,287.754"/>
		<path fill="#FFFFFF" d="M126.028,283.629c-0.338-0.104-0.57-0.175-0.393-0.632c0.384-0.992,0.423-1.849,0.007-2.458
			c-0.779-1.145-2.91-1.083-5.354-0.031c0-0.001-0.767,0.346-0.571-0.281c0.376-1.242,0.319-2.283-0.266-2.885
			c-1.326-1.363-4.852,0.051-7.874,3.16c-2.264,2.33-3.579,4.798-3.579,6.932c0,4.084,5.089,6.565,10.069,6.565
			c6.527,0,10.869-3.901,10.869-6.999C128.938,285.129,127.405,284.068,126.028,283.629z M118.082,292.537
			c-3.973,0.402-7.403-1.445-7.661-4.128c-0.258-2.683,2.754-5.185,6.727-5.589c3.974-0.404,7.403,1.443,7.661,4.125
			C125.066,289.629,122.055,292.132,118.082,292.537z"/>
		<path fill="#FFFFFF" d="M130.363,276.157c-1.576-1.798-3.901-2.483-6.047-2.015l0,0c-0.497,0.109-0.813,0.612-0.708,1.123
			c0.106,0.51,0.595,0.836,1.091,0.728c1.526-0.333,3.179,0.153,4.299,1.432c1.119,1.277,1.423,3.019,0.944,4.546l0,0
			c-0.156,0.496,0.108,1.028,0.593,1.189c0.482,0.161,1-0.111,1.157-0.607v-0.003C132.365,280.402,131.94,277.953,130.363,276.157"
			/>
		<path fill="#FFFFFF" d="M127.942,278.404c-0.767-0.875-1.899-1.209-2.945-0.979c-0.428,0.095-0.699,0.527-0.608,0.968
			c0.091,0.438,0.512,0.719,0.938,0.625l0,0c0.511-0.111,1.065,0.051,1.44,0.478c0.375,0.429,0.477,1.012,0.315,1.522h0.001
			c-0.134,0.428,0.094,0.887,0.509,1.025c0.416,0.137,0.862-0.096,0.996-0.523C128.917,280.473,128.711,279.279,127.942,278.404"/>
		<path fill="#FFFFFF" d="M118.479,284.884c-1.891-0.506-4.028,0.464-4.849,2.177c-0.836,1.748-0.027,3.688,1.882,4.323
			c1.979,0.656,4.311-0.35,5.122-2.235C121.434,287.305,120.436,285.404,118.479,284.884z M117.035,289.348
			c-0.384,0.631-1.208,0.907-1.827,0.616c-0.611-0.286-0.791-1.019-0.407-1.633c0.379-0.612,1.175-0.886,1.791-0.62
			C117.213,287.982,117.413,288.711,117.035,289.348z M118.301,287.676c-0.139,0.245-0.446,0.362-0.687,0.262
			c-0.237-0.102-0.311-0.375-0.177-0.615c0.139-0.238,0.434-0.354,0.67-0.258C118.348,287.154,118.434,287.432,118.301,287.676z"/>
	</g>
	<circle fill="#27AF1C" cx="74" cy="284" r="18"/>
	<path fill="#FFFFFF" d="M69.343,274.066c0.364-0.043,0.734-0.064,1.111-0.066h0.086c0.376,0.002,0.749,0.023,1.114,0.066
		c0.148,0.018,0.295,0.039,0.441,0.063c0.115,0.02,0.229,0.039,0.343,0.063c0.097,0.019,0.193,0.039,0.289,0.062
		c0.085,0.021,0.17,0.04,0.254,0.062c0.076,0.021,0.152,0.041,0.227,0.063c0.07,0.02,0.14,0.041,0.209,0.063
		c0.065,0.02,0.129,0.041,0.193,0.062c0.061,0.021,0.121,0.041,0.181,0.062c0.057,0.021,0.114,0.041,0.17,0.063
		c0.054,0.02,0.107,0.041,0.161,0.063c0.051,0.021,0.102,0.041,0.152,0.062c0.049,0.021,0.097,0.041,0.146,0.062
		c0.047,0.021,0.093,0.041,0.139,0.063c0.045,0.021,0.09,0.041,0.134,0.063c0.043,0.02,0.085,0.041,0.128,0.062
		c0.041,0.021,0.082,0.041,0.123,0.062c0.04,0.021,0.08,0.041,0.119,0.063s0.077,0.041,0.116,0.063
		c0.037,0.02,0.074,0.041,0.11,0.062s0.072,0.042,0.107,0.062c0.035,0.021,0.07,0.041,0.104,0.063
		c0.034,0.02,0.068,0.041,0.102,0.063c0.033,0.021,0.065,0.041,0.098,0.062c0.032,0.021,0.064,0.041,0.096,0.062
		c0.031,0.021,0.062,0.041,0.092,0.063c0.03,0.021,0.061,0.041,0.09,0.063c0.03,0.021,0.06,0.041,0.089,0.062
		c0.029,0.021,0.057,0.041,0.085,0.062c0.028,0.021,0.057,0.041,0.084,0.063c0.027,0.021,0.055,0.041,0.082,0.063
		c0.027,0.021,0.053,0.041,0.08,0.062s0.052,0.041,0.078,0.062c0.025,0.021,0.05,0.041,0.076,0.063
		c0.025,0.021,0.05,0.041,0.075,0.063c0.024,0.021,0.048,0.041,0.072,0.062c0.024,0.021,0.047,0.041,0.071,0.062
		c0.023,0.021,0.046,0.041,0.068,0.063c0.023,0.021,0.046,0.041,0.068,0.063c0.022,0.021,0.044,0.041,0.066,0.062
		c0.021,0.021,0.043,0.041,0.064,0.062c0.021,0.021,0.042,0.043,0.063,0.063c0.021,0.021,0.041,0.041,0.062,0.063
		c0.021,0.021,0.041,0.041,0.061,0.062s0.04,0.041,0.06,0.062c0.02,0.021,0.039,0.041,0.058,0.063s0.038,0.042,0.057,0.063
		s0.037,0.041,0.055,0.062c0.019,0.021,0.037,0.041,0.055,0.062c0.018,0.021,0.036,0.041,0.053,0.063s0.035,0.041,0.052,0.063
		c0.017,0.021,0.034,0.041,0.05,0.062c0.017,0.021,0.034,0.041,0.05,0.062c0.017,0.021,0.032,0.041,0.048,0.063
		c0.016,0.021,0.033,0.041,0.048,0.063c0.016,0.021,0.031,0.041,0.046,0.062s0.031,0.041,0.046,0.062
		c0.015,0.021,0.03,0.041,0.044,0.063c0.014,0.021,0.029,0.041,0.044,0.063c0.015,0.021,0.029,0.041,0.042,0.062
		c0.014,0.021,0.028,0.042,0.042,0.062c0.014,0.021,0.027,0.041,0.041,0.063c0.014,0.021,0.027,0.041,0.04,0.063
		c0.013,0.021,0.026,0.041,0.04,0.062c0.013,0.021,0.025,0.041,0.038,0.062c0.013,0.021,0.025,0.041,0.038,0.063
		c0.012,0.021,0.024,0.041,0.036,0.063c0.012,0.021,0.024,0.041,0.036,0.062c0.012,0.021,0.023,0.041,0.035,0.062
		c0.011,0.021,0.022,0.043,0.034,0.063c0.012,0.02,0.022,0.041,0.034,0.063c0.011,0.021,0.021,0.041,0.032,0.062
		c0.011,0.021,0.021,0.042,0.032,0.062c0.011,0.021,0.021,0.041,0.031,0.063c0.01,0.021,0.02,0.041,0.03,0.063
		c0.01,0.021,0.02,0.041,0.029,0.062c0.01,0.021,0.019,0.041,0.028,0.062c0.009,0.021,0.019,0.041,0.028,0.063
		c0.009,0.021,0.018,0.041,0.027,0.063c0.009,0.021,0.018,0.041,0.026,0.062c0.009,0.021,0.018,0.041,0.026,0.062
		c0.008,0.021,0.016,0.041,0.024,0.063c0.008,0.021,0.017,0.041,0.024,0.063c0.008,0.021,0.015,0.041,0.023,0.062
		c0.007,0.021,0.015,0.042,0.022,0.062c0.007,0.021,0.015,0.041,0.022,0.063c0.007,0.02,0.014,0.041,0.021,0.063
		c0.007,0.021,0.014,0.041,0.021,0.062c0.007,0.021,0.013,0.041,0.02,0.062c0.007,0.021,0.013,0.043,0.019,0.063
		c0.006,0.02,0.013,0.041,0.019,0.063c0.006,0.021,0.012,0.041,0.018,0.062c0.006,0.021,0.012,0.041,0.017,0.062
		c0.006,0.021,0.011,0.043,0.016,0.063c0.006,0.021,0.011,0.041,0.016,0.063c0.005,0.021,0.011,0.041,0.016,0.062
		c0.005,0.021,0.009,0.042,0.014,0.062c0.004,0.021,0.009,0.041,0.014,0.063c0.003,0.014,0.006,0.027,0.009,0.04l0,0
		c-0.153-0.019-0.308-0.03-0.462-0.041c-0.118-0.007-0.236-0.01-0.355-0.01c-0.135,0-0.269,0.003-0.402,0.01
		c-0.222,0.013-0.44,0.032-0.656,0.062c-0.127,0.019-0.254,0.039-0.379,0.063c-0.099,0.02-0.196,0.04-0.293,0.063
		c-0.084,0.02-0.167,0.039-0.25,0.062c-0.073,0.021-0.145,0.04-0.217,0.062c-0.065,0.021-0.13,0.041-0.195,0.063
		c-0.06,0.02-0.12,0.041-0.179,0.063c-0.056,0.02-0.111,0.041-0.166,0.062c-0.052,0.021-0.104,0.041-0.155,0.062
		c-0.049,0.021-0.097,0.041-0.146,0.063c-0.046,0.02-0.092,0.041-0.138,0.063c-0.043,0.02-0.087,0.041-0.13,0.062
		c-0.042,0.021-0.083,0.041-0.123,0.062c-0.04,0.021-0.079,0.041-0.118,0.063c-0.038,0.021-0.076,0.041-0.113,0.063
		c-0.037,0.021-0.073,0.041-0.109,0.062c-0.035,0.021-0.07,0.041-0.104,0.062c-0.034,0.021-0.067,0.041-0.101,0.063
		c-0.033,0.021-0.065,0.041-0.098,0.063c-0.031,0.021-0.063,0.041-0.093,0.062c-0.03,0.021-0.061,0.041-0.091,0.062
		c-0.029,0.021-0.059,0.041-0.088,0.063c-0.028,0.021-0.057,0.041-0.084,0.063c-0.027,0.021-0.055,0.041-0.083,0.062
		c-0.028,0.021-0.054,0.041-0.081,0.062c-0.026,0.021-0.052,0.041-0.078,0.063c-0.025,0.021-0.051,0.041-0.076,0.063
		c-0.024,0.021-0.049,0.041-0.073,0.062s-0.048,0.041-0.072,0.062c-0.023,0.021-0.046,0.041-0.069,0.063
		c-0.023,0.02-0.045,0.041-0.068,0.063c-0.023,0.021-0.044,0.041-0.066,0.062c-0.021,0.021-0.043,0.041-0.064,0.062
		c-0.021,0.021-0.042,0.041-0.063,0.063s-0.041,0.041-0.061,0.063c-0.02,0.021-0.04,0.041-0.06,0.062s-0.039,0.041-0.058,0.062
		c-0.019,0.021-0.039,0.041-0.057,0.063c-0.019,0.021-0.037,0.042-0.056,0.063c-0.018,0.021-0.037,0.041-0.055,0.062
		s-0.035,0.042-0.053,0.062c-0.017,0.021-0.035,0.041-0.052,0.063s-0.034,0.042-0.051,0.063s-0.033,0.041-0.049,0.062
		s-0.032,0.041-0.048,0.062c-0.016,0.021-0.031,0.043-0.047,0.063c-0.016,0.02-0.031,0.041-0.046,0.063
		c-0.015,0.021-0.03,0.041-0.044,0.062c-0.015,0.021-0.03,0.041-0.044,0.062c-0.014,0.021-0.028,0.043-0.042,0.063
		s-0.028,0.041-0.042,0.063c-0.014,0.02-0.027,0.041-0.041,0.062s-0.027,0.041-0.04,0.062c-0.013,0.021-0.026,0.041-0.039,0.063
		c-0.013,0.021-0.025,0.042-0.038,0.063c-0.013,0.02-0.025,0.041-0.038,0.062c-0.012,0.021-0.024,0.041-0.036,0.062
		c-0.012,0.021-0.024,0.041-0.036,0.063s-0.023,0.041-0.034,0.063c-0.011,0.021-0.023,0.041-0.034,0.062
		c-0.011,0.021-0.022,0.041-0.033,0.062c-0.011,0.021-0.021,0.043-0.032,0.063c-0.011,0.02-0.021,0.041-0.032,0.063
		c-0.01,0.02-0.02,0.041-0.03,0.062c-0.01,0.021-0.02,0.041-0.03,0.062c-0.01,0.021-0.019,0.041-0.029,0.063
		c-0.009,0.021-0.019,0.042-0.028,0.063c-0.009,0.021-0.019,0.041-0.028,0.062c-0.009,0.021-0.018,0.041-0.026,0.062
		c-0.008,0.021-0.018,0.041-0.026,0.063c-0.008,0.021-0.017,0.041-0.025,0.063c-0.008,0.021-0.017,0.041-0.024,0.062
		c-0.008,0.021-0.017,0.041-0.024,0.062c-0.008,0.021-0.015,0.043-0.023,0.063c-0.007,0.021-0.015,0.041-0.022,0.063
		c-0.007,0.021-0.015,0.041-0.021,0.062c-0.007,0.021-0.014,0.041-0.021,0.062c-0.007,0.021-0.014,0.041-0.021,0.063
		c-0.006,0.021-0.013,0.042-0.019,0.063c-0.006,0.02-0.013,0.041-0.019,0.062s-0.013,0.042-0.019,0.062
		c-0.006,0.021-0.012,0.041-0.018,0.063c-0.005,0.021-0.012,0.041-0.017,0.063c-0.006,0.021-0.011,0.041-0.016,0.062
		s-0.011,0.041-0.016,0.062c-0.005,0.021-0.011,0.041-0.016,0.063c-0.005,0.021-0.009,0.041-0.014,0.063
		c-0.005,0.02-0.009,0.041-0.014,0.062s-0.009,0.041-0.014,0.062c-0.004,0.021-0.008,0.041-0.012,0.063s-0.008,0.041-0.012,0.063
		c-0.004,0.021-0.008,0.041-0.011,0.062c-0.004,0.021-0.007,0.042-0.011,0.062c-0.004,0.021-0.007,0.041-0.011,0.063
		c-0.003,0.02-0.006,0.041-0.009,0.063c-0.003,0.021-0.006,0.041-0.009,0.062c-0.003,0.021-0.006,0.042-0.009,0.062
		c-0.003,0.021-0.005,0.043-0.007,0.063s-0.005,0.041-0.007,0.063c-0.002,0.02-0.005,0.041-0.007,0.062s-0.003,0.041-0.005,0.062
		c-0.002,0.021-0.004,0.041-0.006,0.063c-0.001,0.021-0.003,0.041-0.005,0.063c-0.001,0.021-0.002,0.041-0.004,0.062
		s-0.003,0.042-0.004,0.062c-0.001,0.021-0.002,0.041-0.003,0.063c-0.001,0.02-0.001,0.041-0.002,0.063
		c0,0.021-0.001,0.041-0.002,0.062c0,0.021,0,0.041-0.001,0.062c-0.001,0.021,0,0.043-0.001,0.063c0,0.021,0,0.041,0,0.063v0.006
		c0,0.019,0,0.037,0,0.056c0,0.021,0,0.041,0.001,0.062c0,0.021,0,0.041,0.001,0.063c0,0.021,0.001,0.041,0.002,0.063
		c0.001,0.021,0.001,0.041,0.002,0.062s0.002,0.042,0.003,0.062c0.001,0.021,0.002,0.041,0.004,0.063
		c0.001,0.021,0.003,0.042,0.005,0.063c0.001,0.021,0.003,0.041,0.005,0.062s0.003,0.042,0.006,0.062
		c0.002,0.021,0.004,0.043,0.006,0.063c0.002,0.021,0.004,0.041,0.007,0.063c0.003,0.021,0.005,0.041,0.007,0.062
		c0.003,0.021,0.005,0.041,0.008,0.062c0.003,0.021,0.006,0.043,0.009,0.063s0.006,0.041,0.009,0.063
		c0.003,0.021,0.006,0.041,0.01,0.062s0.007,0.042,0.011,0.062c0.003,0.021,0.007,0.041,0.011,0.063
		c0.003,0.021,0.007,0.041,0.012,0.063c0.004,0.021,0.008,0.041,0.012,0.062s0.008,0.042,0.013,0.062
		c0.005,0.021,0.009,0.041,0.014,0.063c0.004,0.021,0.009,0.042,0.014,0.063c0.005,0.02,0.01,0.041,0.015,0.062
		c0.005,0.021,0.01,0.041,0.015,0.062c0.005,0.021,0.011,0.043,0.016,0.063c0.006,0.021,0.011,0.041,0.017,0.063
		c0.006,0.021,0.011,0.041,0.017,0.062l0.01,0.035c-0.143,0.011-0.286,0.021-0.43,0.026c-0.121,0.004-0.241,0.008-0.363,0.008
		c-0.118,0-0.232-0.004-0.346-0.008c-0.238-0.012-0.468-0.032-0.694-0.063c-0.138-0.018-0.274-0.039-0.411-0.063
		c-0.113-0.019-0.227-0.039-0.341-0.062c-0.103-0.021-0.207-0.041-0.311-0.062c-0.098-0.021-0.197-0.041-0.298-0.063
		c-0.097-0.021-0.195-0.041-0.295-0.063c-0.092-0.019-0.186-0.039-0.281-0.058l-0.112,0.058l-0.121,0.063l-0.121,0.063l-0.12,0.062
		l-0.121,0.062l-0.121,0.063l-0.121,0.063l-0.12,0.062l-0.121,0.062l-0.121,0.063l-0.121,0.063l-0.121,0.062l-0.12,0.062
		l-0.121,0.063l-0.121,0.063l-0.121,0.062l-0.12,0.062l-0.121,0.063l-0.121,0.063l-0.121,0.062l-0.12,0.062l-0.121,0.063
		l-0.121,0.063l-0.121,0.062l-0.085,0.044l0.014-0.044l0.02-0.062l0.02-0.063l0.02-0.063l0.021-0.062l0.02-0.062l0.02-0.063
		l0.02-0.063l0.02-0.062l0.02-0.062l0.02-0.063l0.02-0.063l0.021-0.062l0.02-0.062l0.02-0.063l0.02-0.063l0.02-0.062l0.02-0.062
		l0.02-0.063l0.021-0.063l0.02-0.062l0.02-0.062l0.02-0.063l0.02-0.063l0.02-0.062l0.02-0.062l0.02-0.063l0.021-0.063l0.02-0.062
		l0.02-0.062l0.02-0.063l0.02-0.063l0.02-0.062l0.02-0.062l0.021-0.063l0.02-0.063l0.02-0.062l0.02-0.062l0.02-0.063l0.02-0.063
		l0.02-0.062l0.021-0.062l0.012-0.037c-0.012-0.008-0.024-0.016-0.036-0.025c-0.029-0.021-0.057-0.041-0.085-0.063
		c-0.028-0.02-0.056-0.041-0.083-0.062c-0.027-0.021-0.055-0.041-0.082-0.062c-0.027-0.021-0.054-0.043-0.081-0.063
		c-0.026-0.021-0.052-0.041-0.079-0.063c-0.026-0.021-0.052-0.041-0.077-0.062s-0.051-0.042-0.076-0.062
		c-0.025-0.021-0.05-0.041-0.075-0.063c-0.024-0.021-0.049-0.042-0.073-0.063s-0.048-0.041-0.072-0.062
		c-0.023-0.021-0.047-0.042-0.07-0.062c-0.023-0.021-0.046-0.043-0.069-0.063c-0.022-0.021-0.045-0.041-0.068-0.063
		c-0.022-0.02-0.044-0.041-0.066-0.062s-0.043-0.041-0.065-0.062c-0.021-0.021-0.042-0.043-0.064-0.063
		c-0.021-0.021-0.042-0.041-0.063-0.063c-0.021-0.021-0.041-0.041-0.062-0.062s-0.041-0.042-0.061-0.062
		c-0.02-0.021-0.04-0.041-0.059-0.063c-0.02-0.02-0.039-0.041-0.058-0.063c-0.02-0.021-0.039-0.041-0.058-0.062
		s-0.037-0.042-0.056-0.062c-0.018-0.021-0.037-0.043-0.055-0.063s-0.036-0.041-0.054-0.063c-0.018-0.021-0.035-0.041-0.053-0.062
		s-0.034-0.041-0.051-0.062c-0.017-0.021-0.034-0.043-0.051-0.063s-0.033-0.041-0.05-0.063c-0.016-0.021-0.032-0.041-0.048-0.062
		s-0.032-0.042-0.047-0.062c-0.015-0.021-0.031-0.041-0.046-0.063c-0.015-0.021-0.031-0.042-0.046-0.063
		c-0.015-0.021-0.029-0.041-0.044-0.062c-0.015-0.021-0.029-0.042-0.044-0.062c-0.014-0.021-0.028-0.041-0.042-0.063
		c-0.014-0.02-0.028-0.041-0.042-0.063c-0.014-0.021-0.027-0.041-0.041-0.062c-0.013-0.021-0.027-0.041-0.04-0.062
		c-0.013-0.021-0.026-0.043-0.039-0.063c-0.013-0.02-0.025-0.041-0.038-0.063c-0.012-0.021-0.025-0.041-0.037-0.062
		c-0.012-0.021-0.024-0.041-0.037-0.062c-0.012-0.021-0.023-0.041-0.035-0.063c-0.012-0.021-0.023-0.041-0.035-0.063
		c-0.011-0.021-0.022-0.041-0.034-0.062c-0.011-0.021-0.022-0.042-0.033-0.062c-0.011-0.021-0.021-0.041-0.032-0.063
		c-0.01-0.021-0.021-0.042-0.031-0.063c-0.01-0.02-0.021-0.041-0.03-0.062c-0.01-0.021-0.02-0.041-0.03-0.062
		c-0.01-0.021-0.02-0.041-0.029-0.063c-0.009-0.021-0.019-0.041-0.028-0.063c-0.009-0.021-0.019-0.041-0.027-0.062
		c-0.009-0.021-0.018-0.041-0.026-0.062c-0.009-0.021-0.017-0.041-0.026-0.063c-0.008-0.021-0.017-0.041-0.025-0.063
		c-0.008-0.021-0.016-0.041-0.024-0.062c-0.008-0.021-0.016-0.042-0.023-0.062c-0.007-0.021-0.015-0.041-0.022-0.063
		c-0.007-0.021-0.015-0.042-0.022-0.063c-0.007-0.021-0.014-0.041-0.021-0.062c-0.007-0.021-0.013-0.041-0.02-0.062
		c-0.007-0.021-0.013-0.041-0.02-0.063c-0.007-0.021-0.013-0.041-0.02-0.063c-0.006-0.021-0.012-0.041-0.018-0.062
		c-0.006-0.021-0.012-0.041-0.018-0.062c-0.006-0.021-0.011-0.041-0.017-0.063s-0.011-0.041-0.017-0.063
		c-0.005-0.021-0.01-0.041-0.016-0.062c-0.005-0.021-0.01-0.042-0.015-0.062c-0.005-0.021-0.01-0.041-0.014-0.063
		c-0.005-0.021-0.009-0.042-0.014-0.063c-0.005-0.02-0.008-0.041-0.013-0.062c-0.004-0.021-0.008-0.041-0.012-0.062
		c-0.004-0.021-0.008-0.041-0.011-0.063c-0.004-0.021-0.008-0.041-0.011-0.063c-0.003-0.021-0.007-0.041-0.01-0.062
		c-0.003-0.021-0.006-0.041-0.01-0.062c-0.003-0.021-0.006-0.043-0.009-0.063s-0.006-0.041-0.008-0.063
		c-0.002-0.021-0.005-0.041-0.008-0.062s-0.005-0.041-0.007-0.062c-0.002-0.021-0.005-0.041-0.007-0.063s-0.004-0.042-0.006-0.063
		c-0.002-0.02-0.003-0.041-0.005-0.062c-0.001-0.021-0.003-0.042-0.004-0.062c-0.001-0.021-0.003-0.041-0.004-0.063
		s-0.003-0.042-0.004-0.063c-0.001-0.02-0.002-0.041-0.003-0.062c0-0.021-0.001-0.041-0.002-0.062c0-0.021-0.001-0.043-0.001-0.063
		s-0.001-0.041-0.001-0.063c0-0.021,0-0.041,0-0.062c0-0.011,0-0.021,0-0.032c0-0.01,0-0.02,0-0.029c0-0.021,0-0.043,0.001-0.063
		c0-0.021,0-0.042,0.001-0.063c0-0.021,0-0.041,0.001-0.062c0-0.021,0.001-0.042,0.002-0.062c0.001-0.021,0.002-0.041,0.003-0.063
		s0.002-0.042,0.003-0.063s0.003-0.041,0.004-0.062c0.001-0.021,0.003-0.041,0.005-0.062c0.001-0.021,0.003-0.043,0.004-0.063
		c0.002-0.021,0.004-0.041,0.006-0.063c0.002-0.021,0.004-0.041,0.006-0.062c0.002-0.021,0.004-0.041,0.006-0.062
		c0.002-0.021,0.006-0.043,0.008-0.063s0.005-0.042,0.008-0.063c0.003-0.021,0.005-0.041,0.008-0.062s0.007-0.042,0.01-0.062
		c0.003-0.021,0.006-0.041,0.01-0.063c0.003-0.021,0.006-0.042,0.01-0.063c0.004-0.021,0.008-0.041,0.012-0.062
		s0.008-0.041,0.012-0.062c0.004-0.021,0.007-0.041,0.012-0.063c0.004-0.021,0.009-0.041,0.014-0.063
		c0.005-0.021,0.009-0.041,0.013-0.062c0.005-0.021,0.009-0.041,0.014-0.062c0.005-0.021,0.01-0.043,0.015-0.063
		c0.005-0.021,0.01-0.042,0.016-0.063c0.006-0.02,0.01-0.041,0.016-0.062c0.006-0.021,0.012-0.041,0.018-0.062
		c0.006-0.021,0.011-0.041,0.017-0.063s0.012-0.042,0.018-0.063c0.006-0.02,0.013-0.041,0.019-0.062s0.013-0.042,0.02-0.062
		c0.006-0.021,0.013-0.043,0.02-0.063c0.007-0.021,0.014-0.042,0.021-0.063c0.007-0.021,0.014-0.041,0.021-0.062
		c0.007-0.021,0.015-0.041,0.022-0.062c0.007-0.021,0.015-0.043,0.023-0.063s0.015-0.042,0.023-0.063s0.017-0.041,0.025-0.062
		c0.008-0.021,0.017-0.041,0.025-0.062c0.008-0.021,0.017-0.041,0.025-0.063c0.009-0.021,0.018-0.042,0.027-0.063
		c0.009-0.021,0.018-0.041,0.027-0.062c0.009-0.021,0.018-0.042,0.027-0.062c0.01-0.021,0.02-0.041,0.029-0.063
		c0.01-0.021,0.019-0.042,0.029-0.063c0.01-0.021,0.02-0.041,0.03-0.062c0.01-0.021,0.021-0.041,0.031-0.062
		c0.01-0.021,0.021-0.043,0.031-0.063c0.01-0.02,0.022-0.041,0.033-0.063c0.011-0.021,0.022-0.041,0.033-0.062
		c0.011-0.021,0.022-0.042,0.034-0.062c0.012-0.021,0.023-0.041,0.035-0.063c0.012-0.021,0.023-0.042,0.036-0.063
		c0.013-0.02,0.024-0.041,0.037-0.062c0.013-0.021,0.025-0.042,0.038-0.062c0.013-0.021,0.025-0.041,0.038-0.063
		c0.013-0.021,0.026-0.042,0.04-0.063c0.014-0.02,0.026-0.041,0.04-0.062s0.027-0.041,0.041-0.062
		c0.014-0.021,0.028-0.043,0.042-0.063c0.014-0.021,0.028-0.041,0.042-0.063c0.015-0.021,0.03-0.041,0.045-0.062
		c0.015-0.021,0.029-0.041,0.044-0.062c0.015-0.021,0.03-0.043,0.046-0.063c0.016-0.02,0.031-0.041,0.047-0.063
		c0.016-0.021,0.032-0.041,0.048-0.062s0.033-0.042,0.049-0.062c0.016-0.021,0.033-0.041,0.049-0.063
		c0.017-0.021,0.035-0.042,0.052-0.063c0.018-0.021,0.035-0.041,0.052-0.062c0.018-0.021,0.036-0.042,0.054-0.062
		c0.018-0.021,0.036-0.043,0.055-0.063s0.037-0.041,0.056-0.063c0.019-0.021,0.038-0.041,0.057-0.062
		c0.02-0.021,0.039-0.042,0.058-0.062c0.02-0.021,0.04-0.043,0.06-0.063c0.021-0.021,0.04-0.042,0.061-0.063
		s0.042-0.041,0.063-0.062s0.042-0.042,0.063-0.062c0.022-0.021,0.044-0.041,0.066-0.063s0.044-0.042,0.066-0.063
		c0.023-0.021,0.046-0.041,0.069-0.062s0.046-0.042,0.07-0.062c0.024-0.021,0.048-0.041,0.072-0.063
		c0.024-0.021,0.049-0.042,0.073-0.063c0.025-0.021,0.05-0.041,0.076-0.062s0.051-0.041,0.077-0.062
		c0.026-0.021,0.053-0.043,0.08-0.063c0.027-0.02,0.053-0.042,0.081-0.063c0.028-0.021,0.056-0.041,0.083-0.062
		c0.028-0.021,0.057-0.042,0.085-0.062c0.029-0.021,0.059-0.041,0.089-0.063c0.029-0.021,0.059-0.042,0.089-0.063
		c0.031-0.021,0.062-0.041,0.093-0.062c0.032-0.021,0.063-0.042,0.096-0.062c0.033-0.021,0.065-0.043,0.098-0.063
		c0.034-0.021,0.068-0.042,0.102-0.063c0.034-0.02,0.069-0.041,0.104-0.062c0.036-0.021,0.073-0.041,0.109-0.062
		c0.037-0.021,0.075-0.043,0.112-0.063c0.038-0.021,0.076-0.042,0.115-0.063c0.041-0.021,0.081-0.041,0.122-0.062
		c0.042-0.021,0.083-0.042,0.125-0.062c0.043-0.021,0.086-0.043,0.13-0.063c0.045-0.021,0.09-0.042,0.136-0.063
		c0.047-0.021,0.095-0.041,0.143-0.062c0.049-0.021,0.099-0.042,0.149-0.062c0.052-0.021,0.104-0.043,0.157-0.063
		c0.055-0.021,0.11-0.042,0.166-0.063c0.059-0.021,0.118-0.041,0.177-0.062c0.063-0.021,0.126-0.042,0.19-0.062
		c0.068-0.021,0.137-0.043,0.206-0.063c0.075-0.021,0.15-0.042,0.226-0.063c0.083-0.021,0.167-0.041,0.25-0.062
		c0.094-0.022,0.188-0.042,0.283-0.062c0.113-0.023,0.227-0.043,0.341-0.063C69.049,274.105,69.195,274.084,69.343,274.066
		L69.343,274.066z M76.443,283.999c-0.423,0-0.85,0.437-0.85,0.869c0,0.438,0.427,0.868,0.85,0.868c0.642,0,1.063-0.43,1.063-0.868
		C77.506,284.434,77.085,283.999,76.443,283.999L76.443,283.999z M81.115,283.999c-0.42,0-0.844,0.437-0.844,0.869
		c0,0.438,0.424,0.868,0.844,0.868c0.637,0,1.063-0.43,1.063-0.868C82.178,284.434,81.752,283.999,81.115,283.999L81.115,283.999z
		 M67.735,277.695c-0.636,0-1.279,0.43-1.279,1.082s0.643,1.089,1.279,1.089c0.637,0,1.061-0.437,1.061-1.089
		C68.795,278.125,68.372,277.695,67.735,277.695L67.735,277.695z M73.68,279.867c0.64,0,1.063-0.436,1.063-1.088
		c0-0.653-0.424-1.084-1.063-1.084c-0.637,0-1.275,0.431-1.275,1.084C72.405,279.432,73.043,279.867,73.68,279.867L73.68,279.867z
		 M73.438,282.57c0.018-0.019,0.037-0.035,0.056-0.053c0.019-0.019,0.037-0.035,0.056-0.053c0.019-0.018,0.039-0.035,0.058-0.053
		c0.02-0.018,0.039-0.035,0.059-0.053s0.041-0.034,0.061-0.053c0.021-0.018,0.041-0.035,0.062-0.052
		c0.021-0.019,0.042-0.035,0.064-0.053c0.022-0.019,0.043-0.035,0.065-0.052c0.022-0.019,0.045-0.035,0.067-0.053
		c0.023-0.019,0.045-0.035,0.068-0.053c0.023-0.018,0.047-0.035,0.071-0.053s0.048-0.035,0.072-0.053
		c0.024-0.018,0.049-0.035,0.074-0.053s0.051-0.035,0.077-0.052c0.026-0.019,0.052-0.036,0.078-0.054
		c0.027-0.018,0.054-0.034,0.082-0.051c0.027-0.019,0.055-0.037,0.083-0.054c0.029-0.019,0.058-0.034,0.086-0.052
		c0.03-0.018,0.059-0.036,0.089-0.053c0.03-0.019,0.061-0.035,0.091-0.053c0.031-0.019,0.063-0.035,0.095-0.053
		c0.033-0.018,0.065-0.035,0.098-0.053c0.034-0.018,0.067-0.035,0.102-0.053c0.035-0.018,0.071-0.035,0.106-0.053
		c0.037-0.018,0.074-0.035,0.11-0.052c0.038-0.019,0.076-0.035,0.114-0.053c0.041-0.019,0.081-0.035,0.121-0.052
		c0.042-0.019,0.084-0.037,0.127-0.054c0.044-0.018,0.089-0.034,0.133-0.052c0.047-0.018,0.094-0.036,0.142-0.053
		c0.049-0.019,0.1-0.035,0.15-0.053c0.053-0.018,0.107-0.035,0.161-0.053c0.058-0.018,0.116-0.035,0.175-0.052
		c0.063-0.019,0.127-0.036,0.191-0.054c0.071-0.019,0.142-0.035,0.213-0.051c0.079-0.02,0.159-0.037,0.24-0.054
		c0.096-0.019,0.193-0.037,0.291-0.052c0.124-0.021,0.249-0.038,0.375-0.053c0.313-0.037,0.634-0.057,0.96-0.058h0.045
		c0.308,0.001,0.614,0.021,0.915,0.058c0.121,0.015,0.241,0.031,0.361,0.053c0.094,0.016,0.188,0.033,0.281,0.052
		c0.078,0.017,0.156,0.034,0.233,0.054c0.069,0.017,0.139,0.033,0.207,0.051c0.063,0.018,0.125,0.035,0.187,0.054
		c0.058,0.017,0.114,0.034,0.171,0.052c0.053,0.018,0.105,0.035,0.158,0.053c0.05,0.018,0.099,0.035,0.148,0.053
		c0.047,0.017,0.093,0.035,0.14,0.053c0.044,0.018,0.088,0.035,0.132,0.052c0.042,0.017,0.084,0.035,0.126,0.054
		c0.04,0.017,0.081,0.035,0.12,0.052c0.038,0.018,0.076,0.034,0.114,0.053c0.037,0.017,0.073,0.035,0.11,0.052
		c0.036,0.018,0.071,0.035,0.106,0.053c0.034,0.018,0.068,0.035,0.102,0.053c0.033,0.018,0.065,0.035,0.098,0.053
		c0.033,0.018,0.064,0.035,0.096,0.053c0.031,0.018,0.061,0.034,0.092,0.053c0.03,0.018,0.059,0.035,0.089,0.053
		c0.029,0.018,0.058,0.035,0.087,0.052c0.028,0.017,0.056,0.035,0.083,0.054c0.028,0.017,0.055,0.035,0.083,0.051
		c0.026,0.018,0.052,0.035,0.079,0.054c0.026,0.017,0.052,0.035,0.077,0.052c0.025,0.018,0.05,0.035,0.075,0.053
		s0.049,0.035,0.073,0.053s0.048,0.035,0.072,0.053c0.023,0.018,0.046,0.035,0.069,0.053c0.023,0.016,0.046,0.034,0.068,0.053
		c0.022,0.017,0.044,0.035,0.066,0.052s0.044,0.034,0.065,0.053c0.021,0.017,0.042,0.035,0.063,0.052
		c0.021,0.019,0.042,0.035,0.062,0.053c0.021,0.018,0.041,0.035,0.06,0.053c0.02,0.018,0.04,0.035,0.06,0.053
		s0.039,0.035,0.058,0.053c0.019,0.017,0.038,0.034,0.057,0.053c0.019,0.018,0.037,0.035,0.055,0.052
		c0.019,0.019,0.037,0.035,0.055,0.053c0.018,0.017,0.035,0.035,0.053,0.054c0.018,0.017,0.035,0.035,0.052,0.052
		s0.035,0.034,0.051,0.052s0.033,0.035,0.049,0.053c0.017,0.018,0.033,0.035,0.049,0.053s0.032,0.035,0.047,0.053
		c0.015,0.017,0.031,0.035,0.047,0.053c0.016,0.018,0.03,0.035,0.045,0.053c0.015,0.017,0.03,0.034,0.045,0.053
		c0.015,0.017,0.029,0.035,0.044,0.052c0.014,0.019,0.028,0.034,0.043,0.053c0.014,0.019,0.028,0.035,0.042,0.052
		c0.014,0.019,0.027,0.035,0.041,0.053s0.027,0.035,0.041,0.053c0.014,0.018,0.026,0.035,0.04,0.053
		c0.013,0.018,0.025,0.035,0.038,0.053c0.013,0.018,0.026,0.035,0.039,0.053c0.012,0.017,0.024,0.035,0.036,0.052
		c0.013,0.019,0.025,0.035,0.037,0.054c0.012,0.018,0.023,0.034,0.035,0.051c0.012,0.018,0.023,0.035,0.035,0.054
		c0.012,0.018,0.023,0.034,0.035,0.052c0.011,0.018,0.021,0.035,0.033,0.053c0.011,0.019,0.022,0.035,0.033,0.053
		c0.01,0.018,0.021,0.035,0.031,0.053c0.011,0.018,0.021,0.035,0.031,0.053c0.01,0.018,0.021,0.035,0.031,0.053
		c0.01,0.018,0.019,0.034,0.029,0.053c0.01,0.017,0.02,0.035,0.029,0.052c0.009,0.019,0.019,0.035,0.028,0.053
		c0.009,0.017,0.018,0.035,0.027,0.052c0.009,0.019,0.018,0.035,0.027,0.054c0.009,0.017,0.018,0.034,0.026,0.052
		c0.008,0.018,0.017,0.035,0.025,0.053c0.008,0.018,0.017,0.035,0.025,0.053c0.008,0.017,0.016,0.035,0.024,0.053
		c0.008,0.017,0.016,0.035,0.023,0.052c0.007,0.017,0.016,0.035,0.023,0.054c0.008,0.017,0.015,0.034,0.022,0.051
		c0.007,0.018,0.015,0.035,0.022,0.054c0.007,0.017,0.015,0.034,0.021,0.052c0.006,0.018,0.014,0.035,0.02,0.053
		c0.007,0.019,0.014,0.035,0.021,0.053c0.007,0.017,0.013,0.035,0.019,0.053c0.006,0.018,0.013,0.035,0.019,0.052
		c0.006,0.019,0.013,0.035,0.019,0.054c0.006,0.018,0.011,0.035,0.017,0.051c0.006,0.019,0.011,0.035,0.017,0.054
		c0.005,0.019,0.011,0.035,0.017,0.052c0.005,0.018,0.01,0.035,0.016,0.053c0.006,0.019,0.01,0.035,0.015,0.053
		s0.011,0.035,0.016,0.053c0.004,0.018,0.009,0.035,0.014,0.053c0.004,0.018,0.009,0.035,0.014,0.053
		c0.004,0.018,0.009,0.035,0.013,0.053s0.008,0.035,0.012,0.052c0.004,0.017,0.008,0.035,0.012,0.054
		c0.004,0.017,0.008,0.034,0.012,0.051c0.003,0.019,0.007,0.035,0.01,0.054c0.003,0.017,0.007,0.035,0.01,0.052
		c0.003,0.018,0.007,0.035,0.01,0.053c0.003,0.019,0.006,0.035,0.009,0.053c0.003,0.018,0.006,0.035,0.009,0.053
		s0.006,0.035,0.008,0.052c0.003,0.019,0.005,0.035,0.007,0.054c0.002,0.018,0.005,0.035,0.007,0.052
		c0.002,0.018,0.004,0.034,0.007,0.053c0.002,0.017,0.003,0.035,0.005,0.052c0.002,0.018,0.004,0.035,0.006,0.053
		c0.001,0.019,0.003,0.035,0.005,0.053c0.001,0.018,0.002,0.035,0.004,0.053s0.002,0.035,0.004,0.053
		c0.001,0.018,0.003,0.034,0.004,0.053c0.001,0.018,0.001,0.035,0.002,0.052c0,0.019,0.001,0.035,0.002,0.053
		c0,0.019,0.001,0.035,0.002,0.054c0,0.017,0,0.035,0.001,0.051c0.001,0.018,0,0.035,0.001,0.054v0.015v0.037v0.053v0.01
		c0,0.014,0,0.029,0,0.043c0,0.018-0.001,0.035-0.002,0.053c0,0.018-0.001,0.035-0.002,0.053c-0.001,0.016-0.001,0.034-0.002,0.053
		c-0.001,0.017-0.002,0.035-0.003,0.052c-0.001,0.019-0.002,0.034-0.004,0.053c-0.002,0.019-0.003,0.035-0.005,0.052
		c-0.001,0.019-0.003,0.035-0.005,0.053s-0.004,0.035-0.006,0.053s-0.004,0.035-0.006,0.053s-0.004,0.035-0.007,0.053
		c-0.002,0.018-0.005,0.035-0.008,0.053c-0.003,0.018-0.005,0.035-0.008,0.052c-0.002,0.019-0.006,0.035-0.009,0.053
		c-0.003,0.019-0.006,0.035-0.009,0.054c-0.003,0.017-0.006,0.035-0.01,0.052c-0.004,0.018-0.007,0.034-0.011,0.052
		c-0.003,0.018-0.007,0.035-0.011,0.053c-0.004,0.019-0.008,0.035-0.012,0.053s-0.008,0.035-0.013,0.053
		c-0.004,0.018-0.008,0.035-0.013,0.052c-0.004,0.019-0.009,0.035-0.014,0.054c-0.004,0.018-0.009,0.034-0.014,0.053
		c-0.005,0.018-0.01,0.035-0.015,0.052s-0.01,0.035-0.016,0.052c-0.005,0.018-0.011,0.035-0.016,0.053
		c-0.006,0.019-0.011,0.035-0.017,0.053c-0.006,0.019-0.011,0.035-0.018,0.053c-0.006,0.018-0.012,0.035-0.018,0.053
		s-0.012,0.035-0.019,0.053c-0.006,0.018-0.012,0.035-0.019,0.053c-0.006,0.017-0.013,0.035-0.02,0.052s-0.014,0.035-0.021,0.054
		c-0.007,0.018-0.014,0.034-0.021,0.051c-0.007,0.019-0.015,0.035-0.022,0.054s-0.015,0.034-0.022,0.052
		c-0.008,0.018-0.016,0.035-0.023,0.053c-0.007,0.019-0.016,0.035-0.024,0.053c-0.008,0.018-0.016,0.035-0.024,0.053
		c-0.008,0.018-0.017,0.035-0.025,0.052c-0.008,0.019-0.017,0.035-0.026,0.054c-0.009,0.018-0.017,0.035-0.026,0.051
		c-0.009,0.019-0.018,0.035-0.027,0.054c-0.009,0.019-0.018,0.035-0.027,0.052c-0.009,0.018-0.019,0.035-0.029,0.053
		c-0.009,0.019-0.019,0.035-0.029,0.054c-0.01,0.017-0.02,0.034-0.03,0.052s-0.021,0.035-0.031,0.053
		c-0.01,0.018-0.021,0.035-0.031,0.053c-0.01,0.018-0.021,0.035-0.032,0.053c-0.01,0.018-0.021,0.035-0.032,0.052
		c-0.011,0.019-0.022,0.035-0.033,0.052c-0.011,0.019-0.022,0.036-0.034,0.053c-0.012,0.019-0.023,0.035-0.035,0.054
		c-0.012,0.019-0.023,0.035-0.036,0.052c-0.012,0.018-0.023,0.035-0.036,0.053c-0.013,0.019-0.024,0.035-0.037,0.053
		c-0.013,0.017-0.025,0.035-0.038,0.053s-0.025,0.035-0.038,0.052c-0.013,0.017-0.025,0.035-0.039,0.054
		c-0.014,0.018-0.026,0.035-0.04,0.052c-0.013,0.018-0.027,0.034-0.04,0.053c-0.014,0.019-0.027,0.035-0.041,0.052
		c-0.014,0.018-0.028,0.035-0.042,0.053c-0.014,0.019-0.028,0.035-0.042,0.053c-0.014,0.018-0.028,0.035-0.043,0.053
		c-0.015,0.018-0.029,0.035-0.044,0.053c-0.015,0.018-0.03,0.034-0.045,0.053c-0.015,0.018-0.03,0.035-0.045,0.053
		s-0.03,0.035-0.046,0.052s-0.031,0.035-0.047,0.054c-0.016,0.017-0.032,0.035-0.048,0.051c-0.016,0.018-0.032,0.035-0.048,0.054
		s-0.033,0.035-0.049,0.052c-0.016,0.018-0.034,0.035-0.05,0.053c-0.017,0.018-0.034,0.035-0.051,0.053
		c-0.018,0.018-0.035,0.035-0.052,0.053c-0.018,0.018-0.035,0.035-0.053,0.053s-0.036,0.034-0.054,0.053
		c-0.018,0.017-0.036,0.035-0.054,0.052c-0.019,0.018-0.037,0.034-0.055,0.053s-0.038,0.035-0.056,0.052
		c-0.019,0.019-0.038,0.035-0.057,0.053c-0.019,0.019-0.039,0.035-0.058,0.053c-0.02,0.018-0.039,0.035-0.059,0.053
		s-0.04,0.035-0.059,0.053c-0.021,0.018-0.041,0.034-0.061,0.053c-0.02,0.018-0.041,0.035-0.062,0.052
		c-0.021,0.019-0.042,0.035-0.063,0.053c-0.021,0.019-0.042,0.035-0.063,0.054c-0.021,0.017-0.043,0.035-0.064,0.052
		s-0.043,0.034-0.065,0.052s-0.044,0.035-0.066,0.053s-0.045,0.035-0.067,0.053l-0.023,0.019l0.01,0.034l0.016,0.052l0.016,0.054
		l0.015,0.053l0.016,0.052l0.015,0.053l0.016,0.052l0.016,0.053l0.015,0.053l0.016,0.053l0.015,0.053l0.016,0.053l0.016,0.052
		l0.016,0.054l0.015,0.051l0.016,0.054l0.015,0.052l0.016,0.053l0.016,0.053l0.015,0.053l0.016,0.052l0.016,0.054l0.015,0.053
		l0.016,0.052l0.015,0.052l0.016,0.053l0.016,0.054l0.015,0.052l0.016,0.053l0.016,0.053l0.015,0.053l0.016,0.052l0.015,0.054
		l0.016,0.051l0.016,0.054l0.015,0.052l0.016,0.053l0.016,0.053l0.015,0.053l0.016,0.052l0.016,0.054L83.664,294l-0.067-0.037
		l-0.094-0.053l-0.094-0.053l-0.093-0.053l-0.094-0.052l-0.094-0.053l-0.094-0.052l-0.094-0.054l-0.094-0.052l-0.094-0.053
		l-0.094-0.053l-0.093-0.053l-0.094-0.052l-0.094-0.054l-0.094-0.051l-0.094-0.054l-0.094-0.053l-0.094-0.052l-0.094-0.053
		l-0.093-0.053l-0.094-0.053l-0.094-0.053l-0.094-0.053l-0.094-0.052l-0.094-0.054l-0.015-0.008l-0.032,0.008
		c-0.068,0.019-0.137,0.035-0.205,0.054c-0.07,0.019-0.139,0.035-0.209,0.052c-0.071,0.018-0.143,0.036-0.215,0.053
		c-0.075,0.019-0.15,0.037-0.226,0.053c-0.081,0.019-0.162,0.035-0.243,0.053c-0.09,0.02-0.181,0.036-0.271,0.053
		c-0.109,0.021-0.219,0.037-0.329,0.053c-0.177,0.023-0.354,0.041-0.531,0.052c-0.096,0.005-0.192,0.008-0.288,0.008
		c-0.125,0-0.25-0.002-0.374-0.008c-0.216-0.009-0.428-0.027-0.638-0.052c-0.124-0.016-0.246-0.032-0.368-0.053
		c-0.096-0.016-0.192-0.033-0.287-0.053c-0.08-0.016-0.16-0.034-0.239-0.053c-0.071-0.018-0.142-0.034-0.211-0.053
		c-0.064-0.017-0.127-0.033-0.19-0.053c-0.058-0.017-0.116-0.033-0.174-0.052c-0.054-0.017-0.107-0.035-0.16-0.054
		c-0.05-0.016-0.1-0.033-0.15-0.051c-0.047-0.018-0.094-0.035-0.141-0.054c-0.044-0.017-0.089-0.034-0.133-0.052
		c-0.042-0.018-0.085-0.035-0.127-0.053c-0.041-0.018-0.081-0.034-0.121-0.053c-0.038-0.017-0.076-0.035-0.114-0.053
		c-0.037-0.018-0.073-0.035-0.11-0.052c-0.036-0.019-0.071-0.035-0.106-0.054c-0.034-0.017-0.068-0.034-0.102-0.051
		c-0.033-0.019-0.065-0.035-0.098-0.054c-0.032-0.017-0.063-0.035-0.095-0.052c-0.03-0.018-0.061-0.035-0.091-0.053
		c-0.029-0.018-0.059-0.035-0.088-0.053c-0.029-0.017-0.058-0.035-0.087-0.053c-0.028-0.018-0.055-0.035-0.082-0.053
		c-0.027-0.018-0.055-0.035-0.082-0.053c-0.026-0.017-0.052-0.035-0.078-0.052c-0.025-0.018-0.051-0.034-0.076-0.053
		s-0.05-0.035-0.075-0.054c-0.024-0.017-0.048-0.034-0.072-0.051c-0.023-0.019-0.047-0.035-0.071-0.053
		c-0.023-0.018-0.045-0.035-0.068-0.053c-0.023-0.018-0.045-0.035-0.067-0.053s-0.043-0.035-0.065-0.053
		c-0.022-0.017-0.043-0.035-0.064-0.053s-0.041-0.035-0.062-0.052s-0.041-0.035-0.062-0.054c-0.02-0.017-0.039-0.035-0.059-0.051
		c-0.019-0.019-0.039-0.035-0.058-0.054c-0.019-0.017-0.038-0.035-0.056-0.052c-0.018-0.018-0.037-0.035-0.056-0.053
		c-0.018-0.018-0.036-0.035-0.053-0.053c-0.018-0.018-0.036-0.035-0.053-0.053c-0.018-0.018-0.035-0.035-0.052-0.053
		c-0.017-0.018-0.034-0.034-0.05-0.053c-0.016-0.018-0.033-0.035-0.049-0.052c-0.017-0.019-0.032-0.034-0.048-0.053
		c-0.016-0.019-0.032-0.035-0.048-0.052c-0.015-0.019-0.03-0.035-0.045-0.053c-0.016-0.019-0.031-0.035-0.046-0.053
		s-0.029-0.035-0.044-0.053s-0.029-0.035-0.043-0.053c-0.014-0.017-0.028-0.035-0.042-0.053c-0.014-0.018-0.027-0.035-0.041-0.053
		c-0.014-0.018-0.028-0.035-0.041-0.052c-0.014-0.017-0.026-0.035-0.04-0.054c-0.014-0.018-0.026-0.035-0.039-0.052
		s-0.025-0.034-0.038-0.053c-0.013-0.017-0.025-0.035-0.038-0.052c-0.012-0.019-0.024-0.035-0.037-0.053
		c-0.012-0.018-0.023-0.035-0.035-0.053c-0.012-0.017-0.023-0.035-0.035-0.053c-0.011-0.018-0.022-0.035-0.034-0.053
		c-0.012-0.017-0.022-0.034-0.033-0.053c-0.011-0.018-0.022-0.035-0.033-0.052c-0.011-0.017-0.021-0.035-0.032-0.053
		c-0.01-0.019-0.021-0.035-0.031-0.052c-0.01-0.018-0.02-0.035-0.03-0.053c-0.01-0.018-0.02-0.035-0.03-0.054
		c-0.009-0.017-0.02-0.035-0.029-0.052c-0.009-0.018-0.019-0.035-0.028-0.053c-0.009-0.018-0.019-0.035-0.028-0.053
		c-0.009-0.018-0.018-0.035-0.027-0.052c-0.009-0.019-0.017-0.035-0.026-0.054c-0.009-0.018-0.018-0.034-0.026-0.051
		c-0.008-0.019-0.016-0.035-0.024-0.054c-0.008-0.019-0.016-0.034-0.024-0.053c-0.008-0.017-0.016-0.035-0.024-0.052
		c-0.008-0.018-0.015-0.035-0.023-0.053c-0.007-0.018-0.015-0.035-0.022-0.053s-0.015-0.035-0.022-0.053s-0.014-0.035-0.021-0.053
		c-0.007-0.017-0.014-0.035-0.021-0.053c-0.007-0.017-0.014-0.035-0.02-0.052c-0.007-0.019-0.013-0.035-0.02-0.053
		c-0.006-0.017-0.013-0.035-0.019-0.052c-0.006-0.018-0.012-0.035-0.018-0.054c-0.006-0.017-0.012-0.034-0.018-0.052
		c-0.006-0.018-0.012-0.035-0.018-0.053c-0.005-0.019-0.011-0.035-0.016-0.053c-0.005-0.018-0.011-0.035-0.016-0.053
		s-0.011-0.035-0.016-0.052c-0.005-0.019-0.009-0.035-0.014-0.054c-0.005-0.018-0.01-0.034-0.015-0.051
		c-0.004-0.019-0.01-0.035-0.014-0.054c-0.004-0.017-0.009-0.035-0.013-0.053c-0.004-0.017-0.008-0.035-0.013-0.052
		c-0.005-0.018-0.009-0.035-0.013-0.053c-0.004-0.017-0.007-0.035-0.011-0.053s-0.008-0.035-0.011-0.053
		c-0.004-0.018-0.008-0.035-0.011-0.053c-0.003-0.017-0.006-0.035-0.01-0.052c-0.003-0.018-0.007-0.034-0.01-0.053
		s-0.006-0.035-0.009-0.054c-0.003-0.016-0.005-0.034-0.008-0.051c-0.003-0.018-0.006-0.035-0.008-0.053
		c-0.003-0.018-0.005-0.035-0.008-0.053s-0.004-0.035-0.007-0.053c-0.002-0.018-0.005-0.035-0.007-0.053
		c-0.002-0.017-0.004-0.035-0.006-0.053s-0.003-0.035-0.005-0.052c-0.001-0.019-0.003-0.035-0.005-0.054
		c-0.002-0.017-0.003-0.035-0.005-0.051c-0.001-0.019-0.002-0.035-0.004-0.054s-0.002-0.035-0.004-0.052
		c-0.001-0.018-0.002-0.035-0.003-0.053c-0.001-0.019-0.001-0.035-0.002-0.053l-0.002-0.053c0-0.018-0.001-0.035-0.002-0.053
		c-0.001-0.016,0-0.034-0.001-0.053v-0.052c0-0.017-0.001-0.034-0.001-0.051v-0.002c0-0.019,0.001-0.035,0.001-0.052
		c0-0.018,0-0.035,0-0.053c0-0.019,0-0.035,0.001-0.053c0-0.018,0.001-0.035,0.002-0.053s0.001-0.035,0.002-0.053
		s0.001-0.035,0.002-0.053c0.001-0.017,0.002-0.035,0.003-0.053s0.002-0.035,0.003-0.052c0.001-0.019,0.002-0.035,0.004-0.054
		c0.002-0.018,0.003-0.035,0.005-0.052c0.002-0.018,0.003-0.034,0.005-0.053s0.003-0.035,0.005-0.052
		c0.002-0.018,0.004-0.035,0.006-0.053c0.002-0.019,0.005-0.035,0.007-0.053s0.004-0.035,0.007-0.053s0.005-0.035,0.008-0.053
		c0.003-0.018,0.006-0.034,0.008-0.053c0.003-0.017,0.005-0.035,0.008-0.052s0.006-0.034,0.01-0.053
		c0.003-0.019,0.006-0.035,0.01-0.052c0.003-0.019,0.006-0.035,0.01-0.053c0.004-0.019,0.007-0.035,0.011-0.053
		c0.003-0.018,0.007-0.035,0.011-0.053s0.007-0.035,0.012-0.053c0.004-0.018,0.008-0.035,0.013-0.053
		c0.004-0.018,0.008-0.035,0.013-0.052c0.004-0.019,0.008-0.035,0.013-0.054c0.004-0.018,0.009-0.034,0.014-0.053
		c0.005-0.017,0.01-0.035,0.015-0.052c0.005-0.017,0.009-0.034,0.015-0.053c0.005-0.017,0.011-0.035,0.016-0.052
		c0.005-0.018,0.01-0.035,0.016-0.053c0.005-0.018,0.011-0.035,0.016-0.053c0.006-0.018,0.012-0.035,0.018-0.053
		c0.005-0.018,0.011-0.035,0.018-0.053c0.006-0.018,0.012-0.034,0.018-0.053c0.006-0.018,0.013-0.035,0.02-0.052
		s0.013-0.035,0.019-0.053c0.007-0.019,0.014-0.035,0.021-0.052c0.007-0.019,0.014-0.035,0.021-0.054
		c0.007-0.018,0.014-0.034,0.021-0.052s0.015-0.035,0.022-0.053s0.015-0.035,0.023-0.053c0.007-0.018,0.015-0.035,0.022-0.053
		c0.007-0.018,0.016-0.035,0.024-0.052c0.008-0.019,0.016-0.035,0.024-0.054c0.008-0.018,0.016-0.034,0.025-0.051
		c0.008-0.019,0.017-0.035,0.026-0.054c0.009-0.019,0.017-0.034,0.026-0.052c0.009-0.018,0.018-0.035,0.027-0.053
		c0.009-0.019,0.019-0.035,0.028-0.053s0.019-0.035,0.028-0.053c0.01-0.018,0.02-0.035,0.03-0.052
		c0.01-0.019,0.02-0.035,0.029-0.054c0.01-0.018,0.02-0.035,0.03-0.051c0.011-0.019,0.021-0.035,0.032-0.054
		c0.01-0.019,0.021-0.035,0.031-0.054c0.01-0.018,0.022-0.034,0.033-0.051c0.011-0.019,0.022-0.035,0.033-0.054
		c0.011-0.018,0.022-0.034,0.034-0.052c0.012-0.018,0.023-0.035,0.036-0.053c0.012-0.018,0.023-0.035,0.035-0.053
		c0.012-0.018,0.024-0.035,0.037-0.053c0.013-0.018,0.025-0.035,0.037-0.052c0.013-0.019,0.025-0.035,0.038-0.054
		c0.013-0.018,0.026-0.034,0.04-0.051c0.013-0.019,0.026-0.035,0.039-0.054c0.014-0.019,0.027-0.035,0.041-0.052
		c0.014-0.018,0.028-0.035,0.042-0.053c0.014-0.019,0.028-0.035,0.042-0.053c0.015-0.018,0.029-0.035,0.043-0.053
		s0.029-0.035,0.044-0.052c0.015-0.019,0.031-0.035,0.046-0.054c0.016-0.018,0.03-0.035,0.046-0.052
		c0.016-0.018,0.032-0.034,0.048-0.053s0.032-0.035,0.048-0.054c0.016-0.018,0.033-0.034,0.049-0.051
		c0.017-0.019,0.034-0.035,0.051-0.053s0.034-0.035,0.052-0.053c0.018-0.018,0.035-0.035,0.053-0.053
		C73.401,282.605,73.419,282.588,73.438,282.57L73.438,282.57z"/>
	<circle fill="#23A4E5" cx="28" cy="284" r="18"/>
	<path fill="#FFFFFF" d="M20.488,283.626c0,0-0.113-1.149,0.667-2.012c0,0,0.042-0.036,0.128-0.05c0,0-0.998-5.51,3.921-7.565
		c0,0,2.744-1.123,5.468,0c0,0,4.579,1.731,3.917,7.647c0,0,0.111-0.133,0.21,0c0,0,0.593,0.677,0.575,1.817
		c0,0,2.176,2.169,1.495,5.746c0,0-0.255,1.626-1.429-0.104c0,0-0.397-0.57-0.511-0.828c0,0-0.151,1.799-1.618,3.054
		c0,0,1.788,0.522,1.655,1.513c0,0,0.047,1.494-3.396,1.655c0,0-2.327,0.085-3.188-1.199h-0.766c0,0-0.549,1.201-3.131,1.2
		c0,0-3.198,0.046-3.396-1.751c0,0,0.029-0.999,1.646-1.351c0,0-1.306-1.094-1.684-3.055c0,0-1.542,2.911-1.93,0.742
		c0,0-0.728-2.75,1.391-5.402L20.488,283.626z"/>
</g>
<g display="none">
	<rect x="70" y="160" display="inline" fill="#E23333" width="20" height="20"/>
	<rect x="100" y="160" display="inline" fill="#E23333" width="20" height="20"/>
	<rect x="10" y="190" display="inline" fill="#E23333" width="20" height="20"/>
	<rect x="40" y="190" display="inline" fill="#E23333" width="20" height="20"/>
	<rect x="10" y="160" display="inline" fill="#E23333" width="20" height="20"/>
	<rect x="40" y="160" display="inline" fill="#E23333" width="20" height="20"/>
	<rect x="70" y="190" display="inline" fill="#E23333" width="20" height="20"/>
</g>
<polygon opacity="0.8" fill="#FF5E5E" enable-background="new    " points="72,204 80,196 88,204 "/>
<g>
	<rect x="13.5" y="163.5" fill="#FFFFFF" stroke="#CCCCCC" stroke-miterlimit="10" width="13" height="13"/>
	<g>
		<rect x="43.5" y="163.5" fill="#FFFFFF" stroke="#CCCCCC" stroke-miterlimit="10" width="13" height="13"/>
		<rect x="46" y="166" fill="#3B97F6" width="8" height="8"/>
	</g>
</g>
</svg>
